<svg width="49" height="48" viewBox="0 0 49 48" fill="none" xmlns="http://www.w3.org/2000/svg">
<g clip-path="url(#clip0)">
<path d="M43.2537 44.5902L41.5488 46.2951C40.2374 47.7377 38.139 48.2623 36.3029 47.7377H35.9095C17.1554 43.0164 5.48326 31.3443 0.761949 12.5902L0.630801 12.1967C0.106211 10.3607 0.761949 8.26229 2.07342 6.95082L2.86031 6.16393L12.0406 15.3443C12.5652 15.8689 13.3521 15.8689 13.8767 15.3443C14.4013 14.8197 14.4013 14.0328 13.8767 13.5082L4.95867 4.45902C7.18818 3.14754 9.94228 3.40983 11.7783 5.2459L17.0242 10.4918C19.2538 12.7213 19.2538 16.1311 17.0242 18.3607L15.8439 19.541C13.7456 21.6393 13.6144 24.918 15.5816 27.1475C17.2865 29.2459 19.2538 31.082 21.3521 32.918C23.5816 34.8852 26.8603 34.7541 28.9587 32.6557L29.221 32.3934L38.4013 41.5738C38.9259 42.0984 39.7128 42.0984 40.2374 41.5738C40.7619 41.0492 40.7619 40.2623 40.2374 39.7377L31.1882 30.6885C33.4177 29.3771 36.1718 29.6393 38.0079 31.4754L43.2537 36.7213C45.3521 38.9508 45.3521 42.3607 43.2537 44.5902Z" fill="#FFAB00"/>
<path opacity="0.2" d="M24.8935 13.1147C24.1066 13.1147 23.582 13.6393 23.582 14.4262C23.582 15.2131 24.1066 15.7377 24.8935 15.7377C29.2214 15.7377 32.7624 19.2787 32.7624 23.6066C32.7624 24.3934 33.287 24.918 34.0738 24.918C34.8607 24.918 35.3853 24.3934 35.3853 23.6066C35.3853 17.8361 30.664 13.1147 24.8935 13.1147Z" fill="#FFAB00"/>
<path opacity="0.2" d="M40.6312 24.918C41.4181 24.918 41.9427 24.3934 41.9427 23.6066C41.9427 14.1639 34.3361 6.55737 24.8935 6.55737C24.1066 6.55737 23.582 7.08196 23.582 7.86885C23.582 8.65573 24.1066 9.18032 24.8935 9.18032C32.8935 9.18032 39.3197 15.6066 39.3197 23.6066C39.3197 24.3934 39.8443 24.918 40.6312 24.918Z" fill="#FFAB00"/>
<path opacity="0.2" d="M24.8935 0C24.1066 0 23.582 0.52459 23.582 1.31148C23.582 2.09836 24.1066 2.62295 24.8935 2.62295C36.4345 2.62295 45.8771 12.0656 45.8771 23.6066C45.8771 24.3934 46.4017 24.918 47.1886 24.918C47.9755 24.918 48.5001 24.3934 48.5001 23.6066C48.5001 10.623 37.8771 0 24.8935 0Z" fill="#FFAB00"/>
<path d="M40.2371 41.5738C39.7125 42.0984 38.9256 42.0984 38.401 41.5738L29.2207 32.3934L31.1879 30.6885L40.2371 39.7377C40.7617 40.2623 40.7617 41.0492 40.2371 41.5738Z" fill="#FF8B00"/>
<path d="M14.0086 15.3443C13.484 15.8689 12.6971 15.8689 12.1725 15.3443L2.99219 6.16393L4.9594 4.45901L14.0086 13.5082C14.5332 14.0328 14.5332 14.8197 14.0086 15.3443Z" fill="#FF8B00"/>
</g>
<defs>
<clipPath id="clip0">
<rect width="48" height="48" fill="white" transform="translate(0.5)"/>
</clipPath>
</defs>
</svg>
