<svg width="49" height="48" viewBox="0 0 49 48" fill="none" xmlns="http://www.w3.org/2000/svg">
<g clip-path="url(#clip0)">
<path opacity="0.2" d="M42.8162 5.68421C42.8162 5.68421 42.8162 5.55789 42.6898 5.55789C43.1951 6.56842 43.4477 7.70526 43.4477 8.8421V25.2632C43.4477 30.1895 39.5319 34.1053 34.6056 34.1053H18.6898L14.0162 38.7789L12.3741 40.4211L11.3635 41.4316L13.6372 39.1579H30.3109L38.774 47.6211C39.0267 47.8737 39.2793 48 39.6583 48C39.7846 48 40.0372 48 40.1635 47.8737C40.6688 47.7474 40.9214 47.2421 40.9214 46.7368V39.0316C45.2162 38.4 48.5004 34.6105 48.5004 30.3158V13.8947C48.5004 10.2316 46.2267 6.94737 42.8162 5.68421Z" fill="#FFAB00"/>
<path opacity="0.67" d="M43.4474 8.8421V25.2632C43.4474 30.1895 39.5316 34.1053 34.6053 34.1053H18.6895L14.0158 38.7789L12.3737 40.4211L11.3632 41.4316L10.2263 42.5684C9.97368 42.8211 9.72105 42.9474 9.3421 42.9474C9.21579 42.9474 8.96316 42.9474 8.83684 42.8211C8.45789 42.6947 8.07895 42.1895 8.07895 41.6842V33.9789C7.82632 33.9789 7.7 33.9789 7.44737 33.8526C7.32105 33.8526 7.06842 33.7263 6.9421 33.7263H6.81579C5.42632 33.3474 4.16316 32.5895 3.27895 31.5789C2.64737 30.9474 2.01579 30.1895 1.63684 29.3053C1.38421 28.9263 1.25789 28.4211 1.13158 28.0421C1.00526 27.6632 0.878947 27.1579 0.752632 26.6526C0.5 26.2737 0.5 25.7684 0.5 25.2632V8.8421C0.5 3.91579 4.41579 0 9.3421 0H34.6053C34.8579 0 35.2368 0 35.4895 0C35.7421 0 35.9947 0 36.1211 0.126316C36.2474 0.126316 36.3737 0.126316 36.5 0.126316C36.6263 0.126316 36.6263 0.126316 36.7526 0.126316C36.8789 0.126316 37.0053 0.252632 37.2579 0.252632C37.5105 0.252632 37.6368 0.378947 37.8895 0.505263C38.1421 0.631579 38.2684 0.631579 38.5211 0.757895C38.7737 0.884211 38.9 1.01053 39.1526 1.01053C39.5316 1.26316 39.9105 1.51579 40.2895 1.76842C40.4158 1.89474 40.6684 2.02105 40.7947 2.14737C40.7947 2.52632 40.921 2.65263 41.0474 2.77895C41.4263 3.15789 41.6789 3.53684 41.9316 3.91579C42.0579 4.04211 42.1842 4.16842 42.1842 4.42105C42.1842 4.42105 42.1842 4.54737 42.3105 4.54737C42.4368 4.67368 42.4368 4.92632 42.5632 5.05263C42.6895 5.17895 42.6895 5.43158 42.8158 5.55789C43.1947 6.56842 43.4474 7.70526 43.4474 8.8421Z" fill="#FFAB00"/>
<path d="M34.6052 10.1053H9.34202C8.58412 10.1053 8.07886 10.6105 8.07886 11.3684C8.07886 12.1263 8.58412 12.6316 9.34202 12.6316H34.6052C35.3631 12.6316 35.8683 12.1263 35.8683 11.3684C35.8683 10.6105 35.3631 10.1053 34.6052 10.1053Z" fill="#FF8B00"/>
<path d="M34.6052 16.4211H9.34202C8.58412 16.4211 8.07886 16.9263 8.07886 17.6842C8.07886 18.4421 8.58412 18.9474 9.34202 18.9474H34.6052C35.3631 18.9474 35.8683 18.4421 35.8683 17.6842C35.8683 16.9263 35.3631 16.4211 34.6052 16.4211Z" fill="#FF8B00"/>
<path d="M34.6052 22.7368H9.34202C8.58412 22.7368 8.07886 23.2421 8.07886 24C8.07886 24.7579 8.58412 25.2632 9.34202 25.2632H34.6052C35.3631 25.2632 35.8683 24.7579 35.8683 24C35.8683 23.2421 35.3631 22.7368 34.6052 22.7368Z" fill="#FF8B00"/>
</g>
<defs>
<clipPath id="clip0">
<rect width="48" height="48" fill="white" transform="translate(0.5)"/>
</clipPath>
</defs>
</svg>
