<svg width="48" height="48" viewBox="0 0 48 48" fill="none" xmlns="http://www.w3.org/2000/svg">
<path d="M28.9194 0.516068C31.0309 2.68449 32.7341 5.21543 33.9474 7.98756C34.0132 8.12611 34.0461 8.27797 34.0434 8.43129L34.5834 8.53923C34.6914 8.56249 34.7962 8.59873 34.8954 8.64716C35.0759 8.70748 35.249 8.78794 35.4114 8.88702C35.5815 8.98383 35.7422 9.09625 35.8914 9.22282C36.0689 9.36421 36.23 9.52513 36.3714 9.70253L36.5634 9.94238C36.7027 10.1449 36.8194 10.3621 36.9114 10.59C36.9639 10.6971 37.0041 10.8097 37.0314 10.9258C37.1047 11.1517 37.153 11.3849 37.1754 11.6214C37.1899 11.7448 37.1979 11.8689 37.1994 11.9931C37.2054 12.065 37.2054 12.1372 37.1994 12.209C37.3373 12.2324 37.4683 12.2856 37.5834 12.3649C42.4634 15.4812 46.1205 20.1822 47.9394 25.6769C47.9994 25.1852 47.9994 24.5496 47.9994 23.9859C47.998 18.4794 46.1008 13.1412 42.6265 8.86745C39.1521 4.59374 34.3122 1.64489 28.9194 0.516068Z" fill="#FFAB00"/>
<path d="M25.6793 0.0720076C25.1273 5.10072e-05 24.5633 5.10764e-05 23.9993 5.10764e-05C20.6948 -0.00679841 17.4252 0.675327 14.3993 2.00284C14.478 2.16552 14.5188 2.34386 14.5188 2.52453C14.5188 2.7052 14.478 2.88353 14.3993 3.04621C13.1681 5.51213 12.3994 8.18264 12.1313 10.9255C12.137 10.9612 12.137 10.9976 12.1313 11.0334C12.2969 11.0971 12.4573 11.1733 12.6113 11.2613C12.7151 11.1229 12.851 11.0117 13.0073 10.9375C18.5118 8.25923 24.8035 7.6752 30.7073 9.29444C30.8419 9.32963 30.9683 9.39074 31.0793 9.47434L31.1993 9.35441C31.2616 9.28825 31.3299 9.22802 31.4034 9.17452C31.5183 9.07987 31.6385 8.99179 31.7633 8.91068C30.452 5.92515 28.5214 3.25181 26.0993 1.06741C25.9563 0.945888 25.8438 0.792525 25.7709 0.619646C25.6979 0.446766 25.6666 0.259194 25.6793 0.0720076Z" fill="#FFAB00"/>
<path d="M6.792 15.1949C6.9186 15.069 7.07572 14.9781 7.248 14.9311V14.7152C7.22597 14.6082 7.20994 14.5001 7.2 14.3914C7.20029 13.8589 7.31885 13.3331 7.54711 12.852C7.77538 12.3708 8.10767 11.9463 8.52 11.6091L8.784 11.4052C8.90511 11.3216 9.03365 11.2494 9.168 11.1893H9.276C9.42194 11.115 9.57463 11.0548 9.732 11.0094C9.71389 10.9184 9.71389 10.8247 9.732 10.7336C9.9697 8.2562 10.5848 5.82964 11.556 3.53795C8.03738 5.67025 5.12645 8.67089 3.10276 12.2517C1.07907 15.8325 0.0106151 19.8731 0 23.9856C0 24.5493 -6.70552e-08 25.1009 0.0719999 25.6526C1.39186 21.6552 3.70382 18.0573 6.792 15.1949Z" fill="#FFAB00"/>
<path d="M8.08799 40.6076C8.98772 40.7188 9.89341 40.7748 10.8 40.7755C15.1151 40.7706 19.3411 39.5485 22.992 37.2496C22.8521 36.8408 22.7871 36.4102 22.8 35.9784C22.7877 35.8187 22.7877 35.6583 22.8 35.4987C22.8 35.4987 22.8 35.3907 22.8 35.3428C22.7363 35.3293 22.6754 35.305 22.62 35.2708C19.411 33.5123 16.6271 31.0716 14.4645 28.1209C12.302 25.1702 10.8135 21.7813 10.104 18.1931C10.0924 18.0975 10.0924 18.0009 10.104 17.9053C9.75372 17.8436 9.41675 17.7219 9.10799 17.5455C9.00146 17.4971 8.90081 17.4368 8.80799 17.3656L8.67599 17.2697L8.51999 17.1497L8.39999 17.0178C4.97314 20.2212 2.63228 24.4138 1.70399 29.0106C1.65661 29.2357 1.54544 29.4425 1.38374 29.6062C1.22203 29.7699 1.01662 29.8837 0.791992 29.934C1.86203 34.1125 4.04788 37.922 7.11599 40.9554C7.2419 40.8288 7.3945 40.7318 7.56265 40.6717C7.73081 40.6115 7.91029 40.5896 8.08799 40.6076Z" fill="#FFAB00"/>
<path d="M33.4683 15.5907C33.2296 15.5831 32.9923 15.551 32.7603 15.4947C32.2115 15.3692 31.7008 15.1143 31.2708 14.7513C30.8407 14.3883 30.5039 13.9277 30.2883 13.408C30.2358 13.3009 30.1956 13.1882 30.1683 13.0722C30.1196 12.9276 30.0835 12.7792 30.0603 12.6284C30.0215 12.4188 30.0014 12.2061 30.0003 11.9928C30.0003 11.8609 30.0003 11.729 30.0003 11.5971C28.044 11.0686 26.0268 10.7984 24.0003 10.7936C20.5844 10.7815 17.2108 11.5485 14.1363 13.0362C14.2199 13.2499 14.2842 13.4706 14.3283 13.6958C14.3351 13.7756 14.3351 13.8558 14.3283 13.9357C14.3283 14.0796 14.3283 14.2355 14.3283 14.3914C14.3406 14.5551 14.3406 14.7194 14.3283 14.8831C14.3283 15.039 14.2683 15.1829 14.2323 15.3268C14.1995 15.4451 14.1594 15.5613 14.1123 15.6746C14.0796 15.7657 14.0395 15.8539 13.9923 15.9384C13.9416 16.0513 13.8814 16.1596 13.8123 16.2623C13.7311 16.3938 13.6387 16.5182 13.5363 16.634C13.5363 16.634 13.5363 16.694 13.4643 16.73C13.3784 16.8278 13.2862 16.9199 13.1883 17.0058C13.0717 17.1195 12.9429 17.2201 12.8043 17.3056C12.7026 17.3831 12.5942 17.4514 12.4803 17.5095H12.3843C12.3894 17.5453 12.3894 17.5816 12.3843 17.6174C13.0323 20.8679 14.3871 23.9363 16.3529 26.6055C18.3187 29.2748 20.8475 31.4796 23.7603 33.0641C23.8259 33.1046 23.8864 33.1529 23.9403 33.208L24.1923 33.0042C24.2711 32.9285 24.3599 32.8639 24.4563 32.8123L24.7323 32.6684L24.9843 32.5484C25.0997 32.496 25.2204 32.4558 25.3443 32.4285H25.4163C25.5535 32.3881 25.6941 32.36 25.8363 32.3445C26.025 32.3403 26.2137 32.3523 26.4003 32.3805C26.544 32.3687 26.6885 32.3687 26.8323 32.3805C27.0073 32.3936 27.1803 32.4257 27.3483 32.4765L27.7083 32.5964C27.8384 32.6377 27.9632 32.694 28.0803 32.7643C30.1035 30.4207 31.6253 27.688 32.552 24.7345C33.4786 21.781 33.7904 18.6692 33.4683 15.5907Z" fill="#FFAB00"/>
<path d="M29.2441 38.185C29.1622 38.3012 29.0698 38.4095 28.9681 38.5088C28.8183 38.661 28.6534 38.7976 28.4761 38.9166H28.4161C28.3469 38.9687 28.2748 39.0167 28.2001 39.0605H28.0801L27.8521 39.1804H27.7441C27.5175 39.2774 27.2796 39.3459 27.0361 39.3843H26.8681C26.7176 39.461 26.5611 39.5252 26.4001 39.5762H26.1241H25.9321L25.5841 39.5042C25.4892 39.4931 25.3963 39.4689 25.3081 39.4323L24.9841 39.3123C24.8622 39.2645 24.7456 39.2042 24.6361 39.1325H24.5521C24.4757 39.2209 24.3867 39.2976 24.2881 39.3603C20.2435 41.8808 15.5665 43.2032 10.8001 43.174C10.3801 43.174 9.9721 43.174 9.6001 43.174C12.2792 45.1905 15.3515 46.6235 18.6187 47.3804C21.886 48.1373 25.2758 48.2015 28.5694 47.5687C31.863 46.9359 34.9873 45.6202 37.7409 43.7065C40.4945 41.7928 42.8161 39.3236 44.5561 36.4581C41.4639 37.7389 38.1473 38.3912 34.8001 38.3769C33.0784 38.379 31.3612 38.2022 29.6761 37.8492H29.5081C29.4275 37.9668 29.3393 38.079 29.2441 38.185Z" fill="#FFAB00"/>
<path d="M46.3433 29.0226C45.728 26.0369 44.5214 23.2043 42.7944 20.6916C41.0675 18.1789 38.855 16.0368 36.2874 14.3914L36.0233 14.6552L35.7233 14.9071C35.7865 15.0266 35.8272 15.1567 35.8433 15.2908C35.9502 16.1863 36.0023 17.0874 35.9993 17.9892C36.0149 23.9788 33.8868 29.7766 29.9994 34.3354C29.9264 34.4239 29.8367 34.4972 29.7354 34.5512C29.823 34.748 29.8913 34.9529 29.9394 35.1629C29.9394 35.2708 29.9394 35.3667 29.9394 35.4747C30.0109 35.4628 30.0838 35.4628 30.1553 35.4747C31.6806 35.8098 33.2377 35.9787 34.7993 35.9784C38.3243 35.9816 41.801 35.1602 44.9513 33.5798C45.1141 33.5012 45.2926 33.4604 45.4733 33.4604C45.6541 33.4604 45.8326 33.5012 45.9953 33.5798C46.5076 32.4148 46.9288 31.2119 47.2553 29.982C47.0259 29.9291 46.8171 29.81 46.6549 29.6394C46.4928 29.4688 46.3844 29.2543 46.3433 29.0226Z" fill="#FFAB00"/>
<path d="M10.8007 17.9892C10.6569 18.0011 10.5124 18.0011 10.3687 17.9892H10.8007Z" fill="#FFAB00"/>
</svg>
