<svg xmlns="http://www.w3.org/2000/svg" xmlns:xlink="http://www.w3.org/1999/xlink" viewBox="0 0 592.37 147.34"><defs><style>.cls-1{isolation:isolate;}.cls-2{fill:#30302f;}.cls-3{fill:#b2b1b1;}.cls-4{fill:#d7d4ca;}.cls-10,.cls-13,.cls-16,.cls-5{mix-blend-mode:screen;}.cls-5{fill:url(#radial-gradient);}.cls-6{fill:url(#radial-gradient-2);}.cls-7{fill:url(#radial-gradient-3);}.cls-8{fill:#26496e;}.cls-9{fill:#2665ae;}.cls-10{fill:url(#radial-gradient-4);}.cls-11{fill:url(#radial-gradient-5);}.cls-12{fill:url(#radial-gradient-6);}.cls-13{fill:url(#radial-gradient-7);}.cls-14{fill:url(#radial-gradient-8);}.cls-15{fill:url(#radial-gradient-9);}.cls-16{fill:url(#radial-gradient-10);}.cls-17{fill:url(#radial-gradient-11);}.cls-18{fill:url(#radial-gradient-12);}</style><radialGradient id="radial-gradient" cx="-408.54" cy="409.1" r="28.94" gradientTransform="translate(614.31 -32.46) rotate(31.54)" gradientUnits="userSpaceOnUse"><stop offset="0" stop-color="#fff"/><stop offset="1"/></radialGradient><radialGradient id="radial-gradient-2" cx="-419.24" cy="362.71" r="15.85" gradientTransform="translate(614.31 -32.46) rotate(31.54)" gradientUnits="userSpaceOnUse"><stop offset="0" stop-color="#fff"/><stop offset="0.05" stop-color="#fafafa"/><stop offset="0.11" stop-color="#edecec"/><stop offset="0.18" stop-color="#d6d5d4"/><stop offset="0.24" stop-color="#bab8b7"/><stop offset="0.59" stop-color="#787879"/><stop offset="0.62" stop-color="#6e6e6f"/><stop offset="0.74" stop-color="#3f3f3f"/><stop offset="0.85" stop-color="#1d1d1d"/><stop offset="0.94" stop-color="#080808"/><stop offset="1"/></radialGradient><radialGradient id="radial-gradient-3" cx="-441.62" cy="424.16" r="28.55" gradientTransform="translate(614.31 -32.46) rotate(31.54)" gradientUnits="userSpaceOnUse"><stop offset="0" stop-color="#fff"/><stop offset="0.08" stop-color="#fafafa"/><stop offset="0.17" stop-color="#edecec"/><stop offset="0.27" stop-color="#d6d5d4"/><stop offset="0.37" stop-color="#bab8b7"/><stop offset="0.7" stop-color="#787879"/><stop offset="0.71" stop-color="#6e6e6f"/><stop offset="0.81" stop-color="#3f3f3f"/><stop offset="0.89" stop-color="#1d1d1d"/><stop offset="0.96" stop-color="#080808"/><stop offset="1"/></radialGradient><radialGradient id="radial-gradient-4" cx="1010.74" cy="464.06" r="28.94" gradientTransform="translate(-827.21 744.41) rotate(-58.46)" xlink:href="#radial-gradient"/><radialGradient id="radial-gradient-5" cx="1000.04" cy="417.67" r="15.85" gradientTransform="translate(-827.21 744.41) rotate(-58.46)" gradientUnits="userSpaceOnUse"><stop offset="0" stop-color="#fff"/><stop offset="0.05" stop-color="#e7eef1"/><stop offset="0.26" stop-color="#85aabb"/><stop offset="0.43" stop-color="#3e7992"/><stop offset="0.56" stop-color="#115a7a"/><stop offset="0.62" stop-color="#004e70"/><stop offset="0.68" stop-color="#004a6a"/><stop offset="0.76" stop-color="#003e59"/><stop offset="0.85" stop-color="#002b3e"/><stop offset="0.95" stop-color="#001017"/><stop offset="1"/></radialGradient><radialGradient id="radial-gradient-6" cx="977.66" cy="479.12" r="28.55" gradientTransform="translate(-827.21 744.41) rotate(-58.46)" gradientUnits="userSpaceOnUse"><stop offset="0" stop-color="#fff"/><stop offset="0.06" stop-color="#f7f9fa"/><stop offset="0.15" stop-color="#e3e7ec"/><stop offset="0.26" stop-color="#c0cbd5"/><stop offset="0.39" stop-color="#91a3b6"/><stop offset="0.52" stop-color="#55718e"/><stop offset="0.62" stop-color="#26496e"/><stop offset="0.68" stop-color="#244568"/><stop offset="0.76" stop-color="#1e3a57"/><stop offset="0.85" stop-color="#15283c"/><stop offset="0.95" stop-color="#070e15"/><stop offset="1"/></radialGradient><radialGradient id="radial-gradient-7" cx="1027.71" cy="2010.24" r="28.94" gradientTransform="translate(-55.86 2331.76) rotate(-148.46)" xlink:href="#radial-gradient"/><radialGradient id="radial-gradient-8" cx="1017.01" cy="1963.85" r="15.84" gradientTransform="translate(-55.86 2331.76) rotate(-148.46)" xlink:href="#radial-gradient-2"/><radialGradient id="radial-gradient-9" cx="994.63" cy="2025.31" r="28.55" gradientTransform="translate(-55.86 2331.76) rotate(-148.46)" xlink:href="#radial-gradient-3"/><radialGradient id="radial-gradient-10" cx="-445.56" cy="2167.29" r="28.94" gradientTransform="translate(1688.59 1571.38) rotate(121.54)" xlink:href="#radial-gradient"/><radialGradient id="radial-gradient-11" cx="-456.26" cy="2120.9" r="15.85" gradientTransform="translate(1688.59 1571.38) rotate(121.54)" xlink:href="#radial-gradient-5"/><radialGradient id="radial-gradient-12" cx="-478.64" cy="2182.35" r="28.55" gradientTransform="translate(1688.59 1571.38) rotate(121.54)" gradientUnits="userSpaceOnUse"><stop offset="0" stop-color="#fff"/><stop offset="0.08" stop-color="#f0f3f5"/><stop offset="0.23" stop-color="#cad2db"/><stop offset="0.45" stop-color="#8b9eb2"/><stop offset="0.7" stop-color="#365779"/><stop offset="0.75" stop-color="#26496e"/><stop offset="0.79" stop-color="#244568"/><stop offset="0.84" stop-color="#1e3a57"/><stop offset="0.9" stop-color="#15283c"/><stop offset="0.97" stop-color="#070e15"/><stop offset="1"/></radialGradient></defs><g class="cls-1"><g id="Layer_1" data-name="Layer 1"><path class="cls-2" d="M206.8,63.1h22.58s0,6.27-1.88,10.14c-1.15,2.51-3.35,5.44-9.73,5.54h-8c-3.87,0-7,.73-9.51,2.72s-3.77,7.21-3.77,11.5c0,3.76,1.26,9.09,3.35,11s5.12,2.93,9.93,2.93h19.65v15.15H206.8a46.51,46.51,0,0,1-9.82-.94c-2.93-.62-6.9-2.51-8.47-4.7a39.14,39.14,0,0,1-7.32-23.52c0-9.51,3.24-18.39,7.53-23.41a17.93,17.93,0,0,1,8.46-5A33.48,33.48,0,0,1,206.8,63.1Z" transform="translate(-12.4 -18.21)"/><path class="cls-2" d="M236.54,70.09a27.41,27.41,0,0,1,9.3-6.17A34.27,34.27,0,0,1,258,61.83a34.86,34.86,0,0,1,12.23,2.09,27.88,27.88,0,0,1,9.41,6.17,28.4,28.4,0,0,1,6,9.51,37.74,37.74,0,0,1,0,24.77,29.07,29.07,0,0,1-6,9.41,24.71,24.71,0,0,1-9.41,6.06A32.72,32.72,0,0,1,258,121.93a32.17,32.17,0,0,1-12.12-2.09,24.3,24.3,0,0,1-9.3-6.06,25.81,25.81,0,0,1-6-9.41,37.74,37.74,0,0,1,0-24.77A25.32,25.32,0,0,1,236.54,70.09Zm10.55,34.49a12.44,12.44,0,0,0,4.29,4.08A13.31,13.31,0,0,0,269,104.58a18.76,18.76,0,0,0,2.2-5.85,31.52,31.52,0,0,0,0-13.49,17,17,0,0,0-2.2-5.85,14.08,14.08,0,0,0-4.39-4.18,14.8,14.8,0,0,0-13.27,0,13.72,13.72,0,0,0-4.29,4.18,17.17,17.17,0,0,0-2.19,5.85,31.52,31.52,0,0,0,0,13.49A19,19,0,0,0,247.09,104.58Z" transform="translate(-12.4 -18.21)"/><path class="cls-2" d="M383.8,85.66V121.3s-6.27,0-10.14-1.77c-2.5-1.15-5.64-3.35-5.64-9.72v-22A14.5,14.5,0,0,0,365.41,79c-2-2.61-5-3.76-9.41-3.76-3.76,0-7,1.15-8.57,3.55s-2.19,4.92-2.19,9.72V121.3h-16V86a14.24,14.24,0,0,0-2.61-7c-2-2.61-5-3.76-9.41-3.76-3.76,0-7,1.15-8.57,3.55s-2.19,4.92-2.19,9.72V121.3h-16V85.56a47.35,47.35,0,0,1,.94-9.83c.62-3,2.5-6.9,4.8-8.57,6.17-4.28,16.52-5.33,21.22-5.33,4.5,0,13.69,1.05,19.34,4.29,6.27-3.45,15.15-4.29,19.34-4.29,5.22,0,16.3,1.25,21.32,5.65a18,18,0,0,1,5.12,8.46A37.09,37.09,0,0,1,383.8,85.66Z" transform="translate(-12.4 -18.21)"/><path class="cls-2" d="M387.83,144.19s0-51.53.1-54.45c.32-5.33,2-11.92,3-14a22.51,22.51,0,0,1,7.94-9.61c5.85-3.66,13-4.6,17.14-4.6a35.68,35.68,0,0,1,13.9,3A22.42,22.42,0,0,1,437.48,70a26.08,26.08,0,0,1,5.43,9.31A36.89,36.89,0,0,1,445,92.66a37.21,37.21,0,0,1-2.09,13.49,26,26,0,0,1-5.43,9.3,22.59,22.59,0,0,1-7.53,5.44,21.64,21.64,0,0,1-8.46,1.67,26.5,26.5,0,0,1-10.14-2,26.09,26.09,0,0,1-7.74-5.12v19.13a9.23,9.23,0,0,1-2.92,6.9c-1.68,2-3.87,2.71-7.95,2.71ZM428.7,86.81A19.5,19.5,0,0,0,426.29,81a12.55,12.55,0,0,0-4.18-4,11.68,11.68,0,0,0-5.95-1.47,12,12,0,0,0-6,1.47A12.65,12.65,0,0,0,406,81a19.76,19.76,0,0,0-2.41,5.85,24.18,24.18,0,0,0-.62,5.75,20.66,20.66,0,0,0,.62,4.81,19.25,19.25,0,0,0,2.41,5.75,13,13,0,0,0,4.18,4.07,12,12,0,0,0,6,1.47,11.68,11.68,0,0,0,5.95-1.47,12.87,12.87,0,0,0,4.18-4.07,19,19,0,0,0,2.41-5.75,18.41,18.41,0,0,0,.62-4.81A23.62,23.62,0,0,0,428.7,86.81Z" transform="translate(-12.4 -18.21)"/><path class="cls-2" d="M457.68,65.91a32.77,32.77,0,0,1,7.63-3.24,51.49,51.49,0,0,1,9.93-1.26h1.15c10.77,0,17.45,4.18,20.17,8,2,2.72,2.2,5,2.2,8.36,0,0,.21,5.33.21,11.4,0,5.33-.11,11.18-.84,14.52C497,109,494.16,114.2,490,117a31.77,31.77,0,0,1-18.29,5.43,35.55,35.55,0,0,1-13.28-2.19,19.3,19.3,0,0,1-6.06-3.76,16.87,16.87,0,0,1-5.12-12.65,20.59,20.59,0,0,1,1.67-7.74c2.61-6.69,8.68-8.67,10.24-9.19a30.1,30.1,0,0,1,6.69-1.68c1.05-.41,2.2-.31,5.33-.62a32.7,32.7,0,0,0,7.42-1.05,10.5,10.5,0,0,0,4.08-1.78,2.56,2.56,0,0,0,1.36-2.4V79a6.89,6.89,0,0,0-.73-3.13c-1.36-2.2-4.18-2.93-8.26-2.93h-.84a11.41,11.41,0,0,0-7,1.88c-1.78,1.26-2.92,2.51-3,4.81H448.9a19,19,0,0,1,2.72-7.84A18.1,18.1,0,0,1,457.68,65.91Zm20.17,29c-1.15.21-2.3.42-3.45.52s-2.5.32-3.66.53a30.75,30.75,0,0,0-3.34.83,11.3,11.3,0,0,0-2.93,1.46,6.63,6.63,0,0,0-2.71,5.86,6.93,6.93,0,0,0,.73,3.45,5.77,5.77,0,0,0,2,2.19,9.73,9.73,0,0,0,3,1.15,19.3,19.3,0,0,0,3.55.31q4.54,0,6.9-1.56a9.3,9.3,0,0,0,3.66-3.56,11.2,11.2,0,0,0,1.46-4.18,25.56,25.56,0,0,0,.31-3.45V92.66A5.89,5.89,0,0,1,481,94,26.68,26.68,0,0,1,477.85,94.86Z" transform="translate(-12.4 -18.21)"/><path class="cls-2" d="M502.51,121.3v-2.09a18,18,0,0,1,1.25-6.79c1.36-2.93,3.87-4.39,7.53-4.5a46.59,46.59,0,0,1,4.7-.1c4.18,0,18.81.1,18.81.1a7.48,7.48,0,0,0,4.39-1.14c.63-.53,1.26-1.36,1.26-3.87,0-1.57-.42-2.82-1.05-3.24a6.57,6.57,0,0,0-3.55-.94H518.29A28.81,28.81,0,0,1,512,98.1c-2.09-.52-4.92-1.78-6.27-3.66a21.92,21.92,0,0,1-4.5-13.69,20.65,20.65,0,0,1,4.81-13.9,13.5,13.5,0,0,1,6.06-3.66,25,25,0,0,1,6.17-.73h32.5v2.09a18,18,0,0,1-1.25,6.79c-1.36,2.93-3.87,4.39-7.63,4.5a36.76,36.76,0,0,1-4.18.1c-3.66,0-17.66-.1-17.77-.1A6.85,6.85,0,0,0,515.68,77c-.63.52-1.36,1.36-1.36,3.86,0,1.57.41,2.83,1.15,3.24a6.44,6.44,0,0,0,3.45,1h17.66a28.54,28.54,0,0,1,6.17.62c2.19.52,5,1.78,6.27,3.66A21.43,21.43,0,0,1,553.3,103a26.77,26.77,0,0,1-1.15,7.95,18.59,18.59,0,0,1-3.34,6,14.07,14.07,0,0,1-6.06,3.66,25.27,25.27,0,0,1-6.28.73Z" transform="translate(-12.4 -18.21)"/><path class="cls-2" d="M554,122.05V120a17.88,17.88,0,0,1,1.26-6.79c1.36-2.93,3.86-4.39,7.52-4.5a46.84,46.84,0,0,1,4.71-.1c4.18,0,18.81.1,18.81.1a7.48,7.48,0,0,0,4.39-1.14c.63-.53,1.26-1.36,1.26-3.87,0-1.57-.42-2.82-1-3.24a6.6,6.6,0,0,0-3.55-.94H569.76a28.81,28.81,0,0,1-6.27-.63c-2.1-.52-4.92-1.78-6.28-3.66a22,22,0,0,1-4.49-13.69,20.65,20.65,0,0,1,4.81-13.9,13.45,13.45,0,0,1,6.06-3.66,25,25,0,0,1,6.17-.73h32.5V65.3A18,18,0,0,1,601,72.09c-1.36,2.93-3.87,4.39-7.63,4.5a36.76,36.76,0,0,1-4.18.1c-3.66,0-17.67-.1-17.77-.1a6.9,6.9,0,0,0-4.29,1.15c-.62.52-1.36,1.36-1.36,3.86,0,1.57.42,2.83,1.15,3.24a6.5,6.5,0,0,0,3.45,1h17.67a28.51,28.51,0,0,1,6.16.62c2.2.52,5,1.78,6.27,3.66a21.37,21.37,0,0,1,4.29,13.69,27.1,27.1,0,0,1-1.15,7.95,18.59,18.59,0,0,1-3.34,6,14.11,14.11,0,0,1-6.07,3.66,25.19,25.19,0,0,1-6.27.73Z" transform="translate(-12.4 -18.21)"/><path class="cls-3" d="M45,94.55c-12.78,4.09-24.73,4.28-29.57-.16a6.28,6.28,0,0,1-2.11-4.23l0,.43A36,36,0,0,0,15.92,101a34.86,34.86,0,0,0,3,5.7c.74,1.06,1.73,2.46,2.52,3.47a7.77,7.77,0,0,0,.69.72c4.85,4.46,16.84,4.26,29.67.16q-1.62-3.27-3.35-7.46c-1.2-2.9-2.35-5.94-3.43-9" transform="translate(-12.4 -18.21)"/><path class="cls-4" d="M67.58,59.65c4.29.22,7.79,1.21,10,3a30.48,30.48,0,0,1,4.89,8.11,33,33,0,0,1,2.31,9c-2.27-1.83-5.78-2.82-10.09-3a45.3,45.3,0,0,0-2.68-9.16,36,36,0,0,0-4.48-8" transform="translate(-12.4 -18.21)"/><path class="cls-4" d="M69.69,60.86A38.75,38.75,0,0,1,73,67.24a47,47,0,0,1,2.59,8.58,20.71,20.71,0,0,1,7.89,1.94,32.17,32.17,0,0,0-1.91-6.59,30,30,0,0,0-4.67-7.76c-.25-.19-.52-.38-.81-.56A16.48,16.48,0,0,0,69.69,60.86Z" transform="translate(-12.4 -18.21)"/><path class="cls-4" d="M18.26,108.37a38.08,38.08,0,0,1-5.8-16.86l0-.44c-.52-6.56,7.89-15.77,21.83-22.9,10.53-5.39,21.81-8.36,30.59-8.56a38.83,38.83,0,0,1,4.37,8A50.65,50.65,0,0,1,72,76.76c-8.8.19-20.12,3.17-30.67,8.58C24,94.14,15.81,105.85,20.91,112c-.82-1.07-1.93-2.49-2.65-3.63" transform="translate(-12.4 -18.21)"/><path class="cls-4" d="M16.41,102.5a30.52,30.52,0,0,0,2.34,4.63A13.44,13.44,0,0,1,19,105.8C20.7,99,29.19,91,41.15,84.91c9.79-5,20.85-8.2,29.88-8.65a51.31,51.31,0,0,0-2.46-7.79,38.45,38.45,0,0,0-3.95-7.32c-8.83.3-19.84,3.43-29.59,8.42-13,6.66-21.78,15.67-21.28,21.9l0,.42A36.85,36.85,0,0,0,16.41,102.5Z" transform="translate(-12.4 -18.21)"/><path class="cls-5" d="M15.58,101.39A29.81,29.81,0,0,0,17.93,106a9.26,9.26,0,0,1,.25-1.34c1.7-6.81,10.18-14.81,22.15-20.89,9.79-5,20.85-8.2,29.88-8.65a50.23,50.23,0,0,0-2.47-7.79A38.82,38.82,0,0,0,63.8,60C55,60.34,44,63.47,34.2,68.46c-13,6.66-21.77,15.67-21.28,21.9l0,.42A37.43,37.43,0,0,0,15.58,101.39Z" transform="translate(-12.4 -18.21)"/><path class="cls-4" d="M15.58,101.39A29.81,29.81,0,0,0,17.93,106a9.26,9.26,0,0,1,.25-1.34c1.7-6.81,10.18-14.81,22.15-20.89,9.79-5,20.85-8.2,29.88-8.65a50.23,50.23,0,0,0-2.47-7.79A38.82,38.82,0,0,0,63.8,60C55,60.34,44,63.47,34.2,68.46c-13,6.66-21.77,15.67-21.28,21.9l0,.42A37.43,37.43,0,0,0,15.58,101.39Z" transform="translate(-12.4 -18.21)"/><path class="cls-6" d="M84.83,79.83l-.22-.17a7.69,7.69,0,0,0-1.06-.7,20,20,0,0,0-8.81-2.17,45.3,45.3,0,0,0-2.68-9.16,35.58,35.58,0,0,0-4.47-8l-.52.38a39,39,0,0,1,4.3,7.88,49.18,49.18,0,0,1,2.89,9.85C78.61,78,82.21,79,84.65,80.7Z" transform="translate(-12.4 -18.21)"/><path class="cls-7" d="M51.77,111l-9.06,2.27c-6.91,1.25-13,1.16-17.23-.43l-.39-.16-.11,0c-3.38-1.46-3.78-3.82-3.77-4.87.28-6.3,8.32-14.76,21.27-21.39,10.24-5.24,21.23-8.14,29.77-8.33-.09-.43-.19-.87-.29-1.31-8.8.19-20.1,3.18-30.64,8.58-12.51,6.4-20.58,14.46-21.78,20.79a6.15,6.15,0,0,0-.16,1.81,6.63,6.63,0,0,0,2.06,4.62l.15.14a8.44,8.44,0,0,0,2.46,1.66c4.18,2,10.75,2.34,18.28,1.1h0l.52-.09h0l.18,0,.59-.11a44.68,44.68,0,0,0,8.74-2.68C52.17,112,51.77,111,51.77,111Z" transform="translate(-12.4 -18.21)"/><path class="cls-8" d="M89.06,133c4.09,12.78,4.28,24.73-.16,29.57a6.26,6.26,0,0,1-4.22,2.11l.43,0A36.19,36.19,0,0,0,95.49,162a34.86,34.86,0,0,0,5.7-3c1-.73,2.46-1.72,3.47-2.52a6.65,6.65,0,0,0,.72-.69c4.45-4.85,4.26-16.84.16-29.67-2.18,1.08-4.68,2.2-7.46,3.35s-5.94,2.35-9,3.43" transform="translate(-12.4 -18.21)"/><path class="cls-9" d="M54.17,110.37c.22-4.29,1.21-7.79,3-10.05a30.58,30.58,0,0,1,8.1-4.89,33.18,33.18,0,0,1,9.06-2.31c-1.83,2.27-2.82,5.79-3,10.09a45.3,45.3,0,0,0-9.16,2.68,35.53,35.53,0,0,0-8,4.48" transform="translate(-12.4 -18.21)"/><path class="cls-9" d="M55.38,108.27a38.38,38.38,0,0,1,6.38-3.33,47.11,47.11,0,0,1,8.57-2.59,20.94,20.94,0,0,1,2-7.89,32,32,0,0,0-6.59,1.92A29.34,29.34,0,0,0,57.93,101a7,7,0,0,0-.56.82A16,16,0,0,0,55.38,108.27Z" transform="translate(-12.4 -18.21)"/><path class="cls-9" d="M102.88,159.69A38,38,0,0,1,86,165.49l-.45,0c-6.55.52-15.76-7.89-22.9-21.83-5.38-10.53-8.36-21.81-8.55-30.59a39.53,39.53,0,0,1,8-4.37A51.36,51.36,0,0,1,71.27,106c.19,8.8,3.18,20.12,8.58,30.68,8.81,17.32,20.51,25.51,26.66,20.4-1.07.82-2.49,1.93-3.63,2.65" transform="translate(-12.4 -18.21)"/><path class="cls-9" d="M97,161.54a30.58,30.58,0,0,0,4.64-2.34,13.1,13.1,0,0,1-1.34-.25c-6.8-1.7-14.8-10.19-20.88-22.15-5-9.79-8.2-20.85-8.65-29.88A49.89,49.89,0,0,0,63,109.39a38,38,0,0,0-7.33,3.94c.31,8.83,3.43,19.84,8.42,29.59,6.67,13,15.68,21.78,21.9,21.29l.43,0A37,37,0,0,0,97,161.54Z" transform="translate(-12.4 -18.21)"/><path class="cls-10" d="M95.9,162.37a29.81,29.81,0,0,0,4.64-2.35,11.13,11.13,0,0,1-1.34-.24c-6.8-1.71-14.8-10.19-20.88-22.15-5-9.79-8.2-20.86-8.65-29.88a48.84,48.84,0,0,0-7.79,2.46,38.29,38.29,0,0,0-7.33,4C54.86,123,58,134,63,143.75c6.66,13,15.67,21.78,21.9,21.28l.42,0A37.36,37.36,0,0,0,95.9,162.37Z" transform="translate(-12.4 -18.21)"/><path class="cls-9" d="M95.9,162.37a29.81,29.81,0,0,0,4.64-2.35,11.13,11.13,0,0,1-1.34-.24c-6.8-1.71-14.8-10.19-20.88-22.15-5-9.79-8.2-20.86-8.65-29.88a48.84,48.84,0,0,0-7.79,2.46,38.29,38.29,0,0,0-7.33,4C54.86,123,58,134,63,143.75c6.66,13,15.67,21.78,21.9,21.28l.42,0A37.36,37.36,0,0,0,95.9,162.37Z" transform="translate(-12.4 -18.21)"/><path class="cls-11" d="M74.34,93.12a1.84,1.84,0,0,1-.17.22,7.3,7.3,0,0,0-.69,1.06,19.88,19.88,0,0,0-2.17,8.81,45.3,45.3,0,0,0-9.16,2.68,35.58,35.58,0,0,0-8,4.47l.38.52a39,39,0,0,1,7.88-4.3,49.56,49.56,0,0,1,9.84-2.89c.22-4.34,1.18-8,2.93-10.39Z" transform="translate(-12.4 -18.21)"/><path class="cls-12" d="M105.54,126.18l2.27,9.06c1.25,6.91,1.15,13.06-.43,17.23l-.16.39a.54.54,0,0,1,0,.11c-1.45,3.38-3.81,3.78-4.87,3.78-6.3-.28-14.76-8.33-21.38-21.28-5.24-10.24-8.14-21.23-8.33-29.77l-1.31.29c.19,8.8,3.18,20.1,8.57,30.65,6.4,12.5,14.46,20.57,20.8,21.77a6.11,6.11,0,0,0,1.8.16,6.57,6.57,0,0,0,4.62-2.06l.15-.14a8.72,8.72,0,0,0,1.66-2.46c2-4.19,2.34-10.76,1.09-18.28h0v0c0-.18-.07-.35-.09-.53v0l0-.18c0-.19-.07-.39-.11-.59a43.94,43.94,0,0,0-2.69-8.73C106.5,125.79,105.54,126.18,105.54,126.18Z" transform="translate(-12.4 -18.21)"/><path class="cls-3" d="M127,89c12.78-4.08,24.73-4.27,29.57.17a6.26,6.26,0,0,1,2.11,4.22l0-.43a36.19,36.19,0,0,0-2.57-10.38,34.86,34.86,0,0,0-3-5.7c-.73-1-1.72-2.46-2.52-3.47a7.77,7.77,0,0,0-.69-.72c-4.85-4.45-16.84-4.26-29.67-.16,1.08,2.18,2.2,4.68,3.35,7.46S126,85.88,127,89" transform="translate(-12.4 -18.21)"/><path class="cls-4" d="M104.45,123.85c-4.29-.22-7.79-1.21-10-3a30.58,30.58,0,0,1-4.89-8.1,33.55,33.55,0,0,1-2.31-9.06c2.27,1.83,5.79,2.82,10.09,3a46,46,0,0,0,2.68,9.16,35.92,35.92,0,0,0,4.48,8" transform="translate(-12.4 -18.21)"/><path class="cls-4" d="M102.34,122.64A39.12,39.12,0,0,1,99,116.26a47,47,0,0,1-2.59-8.58,20.76,20.76,0,0,1-7.89-1.94,32,32,0,0,0,1.92,6.59,29.34,29.34,0,0,0,4.66,7.76,7.75,7.75,0,0,0,.81.56A16.15,16.15,0,0,0,102.34,122.64Z" transform="translate(-12.4 -18.21)"/><path class="cls-4" d="M153.77,75.14A38,38,0,0,1,159.57,92l0,.45c.52,6.55-7.89,15.76-21.83,22.89-10.53,5.39-21.81,8.37-30.59,8.56a39.31,39.31,0,0,1-4.37-8,50.55,50.55,0,0,1-2.78-9.16c8.8-.19,20.12-3.18,30.68-8.59,17.32-8.8,25.51-20.5,20.4-26.66.82,1.08,1.93,2.5,2.65,3.64" transform="translate(-12.4 -18.21)"/><path class="cls-4" d="M155.62,81a29.68,29.68,0,0,0-2.34-4.64,13.62,13.62,0,0,1-.25,1.34c-1.7,6.8-10.19,14.8-22.15,20.88-9.79,5-20.85,8.2-29.88,8.65a49.89,49.89,0,0,0,2.47,7.79,38.26,38.26,0,0,0,3.94,7.33c8.83-.31,19.84-3.44,29.6-8.43,13-6.66,21.77-15.67,21.28-21.9l0-.41A37,37,0,0,0,155.62,81Z" transform="translate(-12.4 -18.21)"/><path class="cls-13" d="M156.45,82.12a29.81,29.81,0,0,0-2.35-4.64,10.79,10.79,0,0,1-.24,1.34c-1.7,6.8-10.19,14.8-22.15,20.88-9.79,5-20.86,8.2-29.89,8.65a50.23,50.23,0,0,0,2.47,7.79,38,38,0,0,0,3.95,7.33c8.83-.31,19.84-3.44,29.59-8.43,13-6.66,21.78-15.67,21.28-21.9l0-.42A37.36,37.36,0,0,0,156.45,82.12Z" transform="translate(-12.4 -18.21)"/><path class="cls-4" d="M156.45,82.12a29.81,29.81,0,0,0-2.35-4.64,10.79,10.79,0,0,1-.24,1.34c-1.7,6.8-10.19,14.8-22.15,20.88-9.79,5-20.86,8.2-29.89,8.65a50.23,50.23,0,0,0,2.47,7.79,38,38,0,0,0,3.95,7.33c8.83-.31,19.84-3.44,29.59-8.43,13-6.66,21.78-15.67,21.28-21.9l0-.42A37.36,37.36,0,0,0,156.45,82.12Z" transform="translate(-12.4 -18.21)"/><path class="cls-14" d="M87.2,103.68l.22.17a7.3,7.3,0,0,0,1.06.69,19.85,19.85,0,0,0,8.81,2.17,46,46,0,0,0,2.68,9.16,35.58,35.58,0,0,0,4.47,8l.52-.38a39,39,0,0,1-4.3-7.88,49.75,49.75,0,0,1-2.89-9.84c-4.34-.22-8-1.18-10.39-2.93Z" transform="translate(-12.4 -18.21)"/><path class="cls-15" d="M120.26,72.48l9.06-2.27c6.91-1.25,13.06-1.15,17.23.43l.39.16.11,0c3.38,1.45,3.78,3.81,3.78,4.86-.28,6.31-8.33,14.77-21.27,21.39-10.25,5.24-21.24,8.14-29.78,8.33.09.44.19.88.29,1.31,8.8-.19,20.1-3.18,30.65-8.58,12.5-6.39,20.57-14.45,21.77-20.79a6.11,6.11,0,0,0,.16-1.8A6.62,6.62,0,0,0,150.59,71l-.14-.15A8.72,8.72,0,0,0,148,69.14c-4.19-2-10.76-2.34-18.28-1.09h0l-.52.1h0l-.18,0-.59.11A43.94,43.94,0,0,0,119.67,71C119.87,71.53,120.26,72.48,120.26,72.48Z" transform="translate(-12.4 -18.21)"/><path class="cls-8" d="M82.62,50.8c-4.09-12.78-4.28-24.73.16-29.57A6.3,6.3,0,0,1,87,19.12l-.42,0A36,36,0,0,0,76.2,21.73a34.62,34.62,0,0,0-5.71,3c-1,.74-2.46,1.73-3.47,2.52a7.77,7.77,0,0,0-.72.69c-4.45,4.85-4.26,16.84-.16,29.67,2.18-1.08,4.68-2.2,7.46-3.35s5.94-2.35,9-3.43" transform="translate(-12.4 -18.21)"/><path class="cls-9" d="M117.51,73.39c-.21,4.29-1.21,7.79-3,10a30.58,30.58,0,0,1-8.1,4.89,33.38,33.38,0,0,1-9,2.31c1.82-2.27,2.81-5.79,3-10.09a45.3,45.3,0,0,0,9.16-2.68,35.53,35.53,0,0,0,8-4.48" transform="translate(-12.4 -18.21)"/><path class="cls-9" d="M116.3,75.5a38.35,38.35,0,0,1-6.38,3.32,47,47,0,0,1-8.58,2.59A20.71,20.71,0,0,1,99.4,89.3,31.4,31.4,0,0,0,106,87.38a29.34,29.34,0,0,0,7.76-4.66,6.82,6.82,0,0,0,.56-.81A16.15,16.15,0,0,0,116.3,75.5Z" transform="translate(-12.4 -18.21)"/><path class="cls-9" d="M68.8,24.07a38.46,38.46,0,0,1,6-3.11,38.06,38.06,0,0,1,10.88-2.69l.44,0c6.55-.52,15.76,7.89,22.9,21.83,5.38,10.53,8.36,21.81,8.55,30.59a38.57,38.57,0,0,1-8,4.37,51.39,51.39,0,0,1-9.16,2.79c-.19-8.81-3.18-20.13-8.58-30.68C83,29.8,71.32,21.62,65.17,26.72c1.07-.82,2.49-1.93,3.63-2.65" transform="translate(-12.4 -18.21)"/><path class="cls-9" d="M74.67,22.22A30.58,30.58,0,0,0,70,24.56a13.1,13.1,0,0,1,1.34.25C78.17,26.51,86.17,35,92.25,47c5,9.79,8.2,20.85,8.65,29.88a49.56,49.56,0,0,0,7.79-2.47A38,38,0,0,0,116,70.43c-.3-8.83-3.43-19.84-8.42-29.59-6.67-13-15.68-21.78-21.91-21.28l-.41,0A37,37,0,0,0,74.67,22.22Z" transform="translate(-12.4 -18.21)"/><path class="cls-16" d="M75.78,21.39a29.81,29.81,0,0,0-4.64,2.35,9.26,9.26,0,0,1,1.34.25c6.8,1.7,14.8,10.18,20.88,22.15,5,9.79,8.2,20.85,8.65,29.88a49.89,49.89,0,0,0,7.79-2.47,38.52,38.52,0,0,0,7.33-3.94c-.31-8.83-3.44-19.85-8.43-29.6C102,27,93,18.23,86.8,18.73l-.42,0A37.44,37.44,0,0,0,75.78,21.39Z" transform="translate(-12.4 -18.21)"/><path class="cls-9" d="M75.78,21.39a29.81,29.81,0,0,0-4.64,2.35,9.26,9.26,0,0,1,1.34.25c6.8,1.7,14.8,10.18,20.88,22.15,5,9.79,8.2,20.85,8.65,29.88a49.89,49.89,0,0,0,7.79-2.47,38.52,38.52,0,0,0,7.33-3.94c-.31-8.83-3.44-19.85-8.43-29.6C102,27,93,18.23,86.8,18.73l-.42,0A37.44,37.44,0,0,0,75.78,21.39Z" transform="translate(-12.4 -18.21)"/><path class="cls-17" d="M97.34,90.64l.17-.22a7.3,7.3,0,0,0,.69-1.06,19.85,19.85,0,0,0,2.17-8.81,45.3,45.3,0,0,0,9.16-2.68,36,36,0,0,0,8-4.46l-.38-.53a39.51,39.51,0,0,1-7.88,4.31,49.53,49.53,0,0,1-9.84,2.88c-.22,4.35-1.18,8-2.92,10.39Z" transform="translate(-12.4 -18.21)"/><path class="cls-18" d="M66.14,57.58l-2.27-9.06c-1.25-6.91-1.15-13.06.44-17.23l.15-.39.05-.11C66,27.41,68.32,27,69.38,27c6.3.27,14.76,8.32,21.38,21.27C96,58.53,98.9,69.52,99.09,78.06l1.32-.29c-.2-8.8-3.19-20.1-8.58-30.64C85.43,34.62,77.37,26.55,71,25.35a6.11,6.11,0,0,0-1.8-.16,6.62,6.62,0,0,0-4.62,2.06l-.15.14a8.64,8.64,0,0,0-1.66,2.47c-2,4.18-2.34,10.75-1.09,18.27h0v0c0,.17.06.34.1.52h0l0,.17c0,.2.08.39.11.59a44.18,44.18,0,0,0,2.69,8.74C65.19,58,66.14,57.58,66.14,57.58Z" transform="translate(-12.4 -18.21)"/></g></g></svg>