<svg id="Layer_1" data-name="Layer 1" xmlns="http://www.w3.org/2000/svg" width="90.75" height="42" viewBox="0 0 90.75 42">
  <defs>
    <style>
      .cls-1, .cls-2 {
        fill: #fff;
      }

      .cls-2 {
        font-size: 9px;
        font-family: Raleway-Regular, Raleway;
      }

      .cls-3 {
        letter-spacing: -0.01em;
      }

      .cls-4 {
        letter-spacing: -0.02em;
      }

      .cls-5 {
        letter-spacing: 0em;
      }
    </style>
  </defs>
  <title>logo-compass</title>
  <g>
    <g>
      <path class="cls-1" d="M.6,15a7.08,7.08,0,0,1,1.92-4.82A7.29,7.29,0,0,1,4.8,8.59,7.21,7.21,0,0,1,7.86,8a7.16,7.16,0,0,1,3.57.85,5.54,5.54,0,0,1,2.25,2.25l-3,2.12a2.51,2.51,0,0,0-.53-.86,2.7,2.7,0,0,0-.73-.54,3.16,3.16,0,0,0-.83-.28,4.6,4.6,0,0,0-.83-.08,2.91,2.91,0,0,0-2.45,1.19,3.72,3.72,0,0,0-.58,1.2,4.84,4.84,0,0,0-.19,1.33,4.57,4.57,0,0,0,.22,1.42,3.69,3.69,0,0,0,.64,1.2,3.11,3.11,0,0,0,1,.83,3,3,0,0,0,1.37.31,3.93,3.93,0,0,0,.82-.09,3.06,3.06,0,0,0,.81-.3,2.74,2.74,0,0,0,.7-.54,2.4,2.4,0,0,0,.49-.81l3.18,1.9a4.05,4.05,0,0,1-1,1.4,6.12,6.12,0,0,1-1.48,1,7.83,7.83,0,0,1-1.78.64,8.2,8.2,0,0,1-1.85.22,6.58,6.58,0,0,1-2.89-.63,7.32,7.32,0,0,1-2.26-1.67,7.59,7.59,0,0,1-1.47-2.36A7.26,7.26,0,0,1,.6,15Z"/>
      <path class="cls-1" d="M20.28,22.37a6.83,6.83,0,0,1-2.94-.62,7.27,7.27,0,0,1-2.26-1.63,7.37,7.37,0,0,1-1.46-2.31,7.15,7.15,0,0,1-.52-2.68,7,7,0,0,1,.54-2.7,7.17,7.17,0,0,1,1.51-2.29,7.38,7.38,0,0,1,2.3-1.58A7.11,7.11,0,0,1,20.36,8a6.84,6.84,0,0,1,2.94.62,7.2,7.2,0,0,1,2.26,1.64A7.39,7.39,0,0,1,27,12.55a7.23,7.23,0,0,1,.51,2.66A6.89,6.89,0,0,1,27,17.9a7.27,7.27,0,0,1-3.79,3.87A7,7,0,0,1,20.28,22.37Zm-3.22-7.2a4.81,4.81,0,0,0,.2,1.39,3.62,3.62,0,0,0,.6,1.19,3,3,0,0,0,1,.84,3.42,3.42,0,0,0,2.91,0,3,3,0,0,0,1-.86,3.68,3.68,0,0,0,.58-1.21,5.09,5.09,0,0,0,.19-1.38,4.85,4.85,0,0,0-.2-1.39,3.44,3.44,0,0,0-.61-1.18,3.29,3.29,0,0,0-3.9-.81,3,3,0,0,0-1,.85,3.6,3.6,0,0,0-.59,1.2A5,5,0,0,0,17.06,15.17Z"/>
      <path class="cls-1" d="M38.82,22.25V14.77L36.44,20H34.36L32,14.77v7.48h-3.9V8h4.26l3.06,6.68L38.48,8h4.24v14.2Z"/>
      <path class="cls-1" d="M44.06,22.25V8h6.12a4.31,4.31,0,0,1,1.92.43A5,5,0,0,1,53.61,9.6a5.23,5.23,0,0,1,1,1.58A4.74,4.74,0,0,1,55,13a5.09,5.09,0,0,1-.34,1.83,5.14,5.14,0,0,1-1,1.58,4.53,4.53,0,0,1-1.48,1.1,4.42,4.42,0,0,1-1.91.41H48v4.36ZM48,14.49H50a.91.91,0,0,0,.67-.33A1.75,1.75,0,0,0,51,13a1.57,1.57,0,0,0-.36-1.2,1.09,1.09,0,0,0-.72-.32H48Z"/>
    </g>
    <g>
      <path class="cls-1" d="M75.21,12.69A11,11,0,0,0,74,12a11.5,11.5,0,0,0-1.21-.45,4.38,4.38,0,0,0-1.31-.21,1.82,1.82,0,0,0-.83.16.56.56,0,0,0-.31.54.62.62,0,0,0,.18.46,1.69,1.69,0,0,0,.52.33,6.32,6.32,0,0,0,.83.29l1.11.34a14.59,14.59,0,0,1,1.77.66,5.51,5.51,0,0,1,1.35.85,3.28,3.28,0,0,1,.86,1.19,4.31,4.31,0,0,1,.3,1.7,4.48,4.48,0,0,1-.47,2.15,3.86,3.86,0,0,1-1.24,1.39,5.24,5.24,0,0,1-1.74.75,8.43,8.43,0,0,1-2,.23,11,11,0,0,1-1.6-.12A13.54,13.54,0,0,1,68.6,22,14.19,14.19,0,0,1,67,21.45a9.93,9.93,0,0,1-1.39-.68l1.68-3.42a11.68,11.68,0,0,0,1.46.78,10.35,10.35,0,0,0,1.45.54,5.77,5.77,0,0,0,1.65.24,1.68,1.68,0,0,0,.89-.17.52.52,0,0,0,.25-.45.64.64,0,0,0-.25-.51,2.27,2.27,0,0,0-.69-.37q-.44-.16-1-.32t-1.21-.38A10.36,10.36,0,0,1,68.25,16a4.37,4.37,0,0,1-1.12-.84,3,3,0,0,1-.65-1.07,4.18,4.18,0,0,1-.21-1.38,4.76,4.76,0,0,1,.43-2.08,4.27,4.27,0,0,1,1.17-1.5,5.23,5.23,0,0,1,1.69-.91,6.42,6.42,0,0,1,2-.31,7.67,7.67,0,0,1,1.52.15,12.08,12.08,0,0,1,1.43.38q.69.23,1.29.5l1.08.51Z"/>
      <path class="cls-1" d="M87,12.69A11,11,0,0,0,85.77,12a11.48,11.48,0,0,0-1.21-.45,4.39,4.39,0,0,0-1.31-.21,1.82,1.82,0,0,0-.83.16.56.56,0,0,0-.31.54.62.62,0,0,0,.18.46,1.69,1.69,0,0,0,.52.33,6.27,6.27,0,0,0,.83.29l1.11.34a14.63,14.63,0,0,1,1.77.66,5.49,5.49,0,0,1,1.35.85,3.3,3.3,0,0,1,.86,1.19,4.32,4.32,0,0,1,.3,1.7,4.48,4.48,0,0,1-.47,2.15,3.86,3.86,0,0,1-1.24,1.39,5.24,5.24,0,0,1-1.74.75,8.42,8.42,0,0,1-1.95.23,11,11,0,0,1-1.6-.12A13.54,13.54,0,0,1,80.4,22a14.19,14.19,0,0,1-1.56-.52,9.93,9.93,0,0,1-1.39-.68l1.68-3.42a11.68,11.68,0,0,0,1.46.78,10.35,10.35,0,0,0,1.45.54,5.77,5.77,0,0,0,1.65.24,1.68,1.68,0,0,0,.89-.17.52.52,0,0,0,.25-.45.64.64,0,0,0-.25-.51,2.29,2.29,0,0,0-.69-.37c-.29-.11-.63-.21-1-.32s-.78-.23-1.21-.38A10.36,10.36,0,0,1,80,16a4.37,4.37,0,0,1-1.12-.84,3,3,0,0,1-.65-1.07,4.18,4.18,0,0,1-.21-1.38,4.76,4.76,0,0,1,.43-2.08,4.27,4.27,0,0,1,1.17-1.5,5.23,5.23,0,0,1,1.69-.91,6.42,6.42,0,0,1,2-.31,7.67,7.67,0,0,1,1.52.15,12.18,12.18,0,0,1,1.43.38q.69.23,1.29.5l1.08.51Z"/>
    </g>
    <path class="cls-1" d="M52.35,23.33h13a.2.2,0,0,0,.19-.28L59.22,7.89a.2.2,0,0,0-.37,0L52.16,23A.2.2,0,0,0,52.35,23.33Z"/>
    <circle class="cls-1" cx="64.04" cy="3.77" r="2.19"/>
    <path class="cls-1" d="M64.32,26.08,58.88,38.42,53.73,26.08H64.32m1.22-1h-13a.2.2,0,0,0-.19.28l6.33,15.16a.2.2,0,0,0,.37,0l6.68-15.16a.2.2,0,0,0-.19-.28Z"/>
    <text class="cls-2" transform="translate(13.58 31.53)"><tspan class="cls-3">S</tspan><tspan class="cls-4" x="5.33" y="0">Y</tspan><tspan class="cls-5" x="11.02" y="0">S</tspan><tspan x="16.43" y="0">TEM</tspan></text>
  </g>
</svg>
