<?xml version="1.0" encoding="UTF-8"?>
<svg width="654px" height="149px" viewBox="0 0 654 149" version="1.1" xmlns="http://www.w3.org/2000/svg" xmlns:xlink="http://www.w3.org/1999/xlink">
    <title>Group 5</title>
    <g id="Page-1" stroke="none" stroke-width="1" fill="none" fill-rule="evenodd" fill-opacity="0.05614">
        <g id="#25-Login" transform="translate(175.000000, -650.000000)" fill="#0969DF">
            <g id="Group-5" transform="translate(-174.468468, 650.785899)">
                <path d="M82.4684685,51.0090449 C141.219219,10.2724656 197.885886,-4.99251567 252.468468,5.21410106 C334.342342,20.5240262 394.972973,36.0127902 423.801802,36.0127902 C452.630631,36.0127902 516.054054,11.2112921 537.963964,3.71316473 C552.570571,-1.28558683 590.738739,3.88139195 652.468468,19.2141011 L560.468468,134.214101 L60,147.480019 L82.4684685,63.6981835 L82.4684685,51.0090449 Z" id="Path-5"></path>
                <path d="M-2.27373675e-13,61.5249625 C84.1261261,4.90448808 153.990991,-12.6357741 209.594595,8.90417597 C293,41.2141011 325,55.2141011 378,55.2141011 C431,55.2141011 469.054054,11.2112921 490.963964,3.71316473 C505.570571,-1.28558683 543.738739,3.88139195 605.468468,19.2141011 L513.468468,134.214101 L13,147.480019 L-2.27373675e-13,74.2141011 L-2.27373675e-13,61.5249625 Z" id="Path-5-Copy" transform="translate(302.734234, 73.740009) scale(-1, 1) translate(-302.734234, -73.740009) "></path>
            </g>
        </g>
    </g>
</svg>