<?xml version="1.0" encoding="utf-8"?>
<!-- Generator: Adobe Illustrator 22.0.1, SVG Export Plug-In . SVG Version: 6.00 Build 0)  -->
<svg version="1.1" id="Layer_1" xmlns="http://www.w3.org/2000/svg" xmlns:xlink="http://www.w3.org/1999/xlink" x="0px" y="0px"
	 viewBox="0 0 179.5 132" style="enable-background:new 0 0 179.5 132;" xml:space="preserve">
<style type="text/css">
	.st0{fill:#FFFFFF;}
</style>
<g>
	<path class="st0" d="M90.9,0.5c16.1,0.2,30.3,5.3,42.5,15.8c12.7,10.9,20.2,24.9,22.2,41.4c2.3,19.2-3,36.2-15.5,50.9
		c-5.8,6.9-12.9,12.2-21.1,16.1c-2,1-4,1-5.8-0.3c-1.9-1.3-2.7-3.1-2.4-5.3c0.2-2.3,1.6-3.7,3.6-4.7c5.8-2.7,10.9-6.4,15.3-11
		c8.6-9.1,13.7-19.8,14.9-32.3c1.6-17-3.8-31.7-15.8-43.7c-8.9-9-19.8-14-32.4-15.2C79,10.5,64.1,16,52,28.3
		c-8.7,8.8-13.6,19.5-14.9,31.8C35.6,75,39.6,88.3,49,100c1.5,1.9,3.2,3.7,5,5.3c0.8,0.7,1.3,0.8,1.8-0.3c1.3-2.8,2.6-5.5,4-8.2
		c1.6-3,4-3.2,5.8-0.3c6.1,9.2,12.1,18.4,18.2,27.6c1.6,2.4,0.5,4.7-2.3,4.9c-7.6,0.7-15.2,1.4-22.8,2.1c-3.6,0.3-7.2,0.6-10.8,1
		c-2.9,0.3-4.5-1.8-3.3-4.4c1.5-3.3,3.2-6.5,4.8-9.7c0.4-0.9,0.3-1.3-0.4-2c-11.9-10-19.4-22.6-22.3-37.7C24,64.8,25.5,51.9,31,39.5
		c8.2-18.2,22-30.2,41-36.2C78.1,1.3,84.4,0.3,90.9,0.5z"/>
	<path class="st0" d="M73.7,87.6c-3.1,0-6.3,0-9.4,0c-4.5,0-6.1-1.9-5.6-6.3c0.5-4.5,2.9-8,5.8-11.3c2.9-3.3,6.6-5.8,9.8-8.8
		c1-1,2-2,2.8-3.2c0.9-1.2,1.2-2.7,1-4.2c-0.3-1.9-1.3-2.7-3.2-3c-3.4-0.4-6.1,0.6-8,3.7c-1.4,2.3-3.9,2.8-6.2,1.8
		c-2-0.9-2.9-2.7-2.4-4.8c0.6-2.5,2.1-4.5,4.1-6.1c5.4-4.1,11.4-4.7,17.7-2.8c6.6,2.1,8.5,7.9,7.7,13.8c-0.7,5-4,8.5-7.5,11.7
		c-3,2.8-6.3,5.3-8.9,8.5c-0.2,0.3-0.5,0.5-0.6,0.8c-0.2,0.3-0.6,0.6-0.3,1c0.2,0.3,0.6,0.2,1,0.2c4.3,0,8.5,0,12.8,0
		c2.8,0,4.6,1.6,4.7,4.2c0.2,2.8-1.7,4.6-4.8,4.7C80.5,87.6,77.1,87.5,73.7,87.6C73.7,87.6,73.7,87.6,73.7,87.6z"/>
	<path class="st0" d="M108.1,69.3c4.4,0,4.4,0,4.4-4.5c0-0.8-0.1-1.7,0-2.5c0.2-2.8,2.3-4.6,5.3-4.5c2.9,0.1,4.6,1.8,4.7,4.7
		c0,1.8,0,3.5,0,5.3c0,1,0.3,1.4,1.4,1.5c3.3,0.3,4.9,2,4.6,5c-0.2,2.3-1.7,3.7-4,3.9c-1.9,0.2-1.9,0.2-1.9,2.1c0,1.2,0,2.4,0,3.5
		c-0.1,2.4-2,4.1-4.5,4.3c-2.7,0.2-5-1.4-5.3-3.8c-0.2-1.4-0.2-2.9-0.1-4.4c0.1-1.3-0.4-1.8-1.7-1.8c-4.7,0.1-9.4,0-14.1,0
		c-4.3,0-6.4-3.4-4.4-7.3c4.4-8.8,8.9-17.5,13.3-26.3c1.4-2.8,3.9-3.7,6.6-2.3c2.7,1.4,3.5,3.8,2,6.7c-3.2,6.3-6.5,12.5-9.8,18.7
		c-0.8,1.5-0.7,1.6,1,1.6C106.3,69.3,107.2,69.3,108.1,69.3z"/>
</g>
</svg>
