<?xml version="1.0" encoding="utf-8"?>
<!-- Generator: Adobe Illustrator 22.0.1, SVG Export Plug-In . SVG Version: 6.00 Build 0)  -->
<svg version="1.1" id="Layer_1" xmlns="http://www.w3.org/2000/svg" xmlns:xlink="http://www.w3.org/1999/xlink" x="0px" y="0px"
	 viewBox="0 0 179.5 132" style="enable-background:new 0 0 179.5 132;" xml:space="preserve">
<style type="text/css">
	.st0{fill:#FFFFFF;}
</style>
<path class="st0" d="M93.6,57.2c14.9,4.6,22.7,14.1,22.3,27.1c0,0.8-0.1,1.6-0.2,2.4c-1,6.6-1,6.6,4.8,10c5.6,3.3,11.4,6.4,16.9,9.8
	c2.2,1.3,3.7,1.3,6,0c6.9-4.1,15.5-1.3,19,5.8c3.5,7.1,0.3,15.7-6.9,18.7c-7.3,3.1-15.7-0.5-18.3-7.9c-0.4-1.1-0.9-2.4-0.7-3.5
	c0.9-4.1-1.7-5.5-4.6-7.1c-7.3-4-14.5-8.3-21.7-12.4c-11.9,13-30.1,12.7-41.5,0c-8.2,4.7-16.5,9.4-24.6,14.4c-0.8,0.5-1,2.4-1.1,3.7
	c-0.1,6.8-5.2,12.9-11.6,13.7c-7.5,1-13.9-3.3-15.7-10.4c-1.6-6.6,2.2-13.7,8.8-15.9c4.2-1.5,8.3-0.9,12.3,1.3
	c1,0.6,2.8,0.8,3.8,0.3c8-4.4,15.9-9.1,24.2-13.9c-2.7-7.8-1.9-15.4,1.8-22.7c3.8-7.6,10.6-11.1,19-13.2c0-9.6,0.1-19.1-0.1-28.7
	c0-1.1-1.8-2.3-3-3.1c-6.5-4.1-8.6-12.3-4.7-18.8c3.8-6.3,12-8.6,18.4-4.9c4.4,2.5,6.8,6.3,7,11.3c0.2,5.5-2,10-6.9,12.5
	c-2.3,1.2-2.8,2.6-2.8,5C93.7,39.4,93.6,48.2,93.6,57.2z M35,118.4c0-3.3-2.4-5.8-5.7-5.7c-3.1,0-5.9,2.8-5.8,5.8
	c0.1,2.9,2.7,5.5,5.6,5.6C32.4,124.1,34.9,121.7,35,118.4z M89.5,8.1c-3.2,0-5.7,2.5-5.6,5.9c0.1,3.1,2.4,5.5,5.5,5.5
	c3.2,0.1,5.9-2.5,5.9-5.6C95.4,10.8,92.7,8.1,89.5,8.1z M156,118.2c-0.1-3.1-2.8-5.7-6-5.5c-3.3,0.1-5.6,2.7-5.4,6
	c0.2,3.1,2.6,5.4,5.7,5.4C153.5,124,156.1,121.3,156,118.2z"/>
</svg>
