<?xml version="1.0" encoding="utf-8"?>
<!-- Generator: Adobe Illustrator 22.0.1, SVG Export Plug-In . SVG Version: 6.00 Build 0)  -->
<svg version="1.1" id="Layer_1" xmlns="http://www.w3.org/2000/svg" xmlns:xlink="http://www.w3.org/1999/xlink" x="0px" y="0px"
	 viewBox="0 0 199.2 132" style="enable-background:new 0 0 199.2 132;" xml:space="preserve">
<style type="text/css">
	.st0{fill:#FFFFFF;}
</style>
<g>
	<path class="st0" d="M60.3,13.3c0,3.6,0,6.9,0,10.3c0.1,4.3,1.9,7.5,5.9,9.2c6.2,2.6,13-1.9,13.2-8.5c0.1-3.5,0-7.1,0-10.7
		c13.4,0,26.7,0,40.3,0c0,0.8,0,1.7,0,2.5c0,2.7-0.1,5.5,0,8.2c0.1,5.3,4.3,9.3,9.6,9.3c5.2,0,9.3-4.1,9.4-9.3c0.1-3.5,0-7.1,0-10.5
		c4.7,0,9.2-0.4,13.6,0.1c4,0.5,6.5,4.4,6.5,8.9c0,13.7,0,27.4,0,41.1c0,19.5,0,38.9,0,58.4c0,6.3-3.5,9.7-9.7,9.7
		c-33,0-66.1,0-99.1,0.1c-6.1,0-9.7-4.5-9.7-9.7c0.1-33.2,0.1-66.3,0.1-99.5c0-5.8,3.6-9.4,9.4-9.4C53.2,13.3,56.7,13.3,60.3,13.3z
		 M150.1,49.1c-33.7,0-67.3,0-100.9,0c0,24.8,0,49.3,0,73.9c33.7,0,67.3,0,100.9,0C150.1,98.4,150.1,73.9,150.1,49.1z"/>
	<path class="st0" d="M123.4,14.9c0-2.8,0-5.7,0-8.5c0-3.8,2.5-6.3,6-6.3c3.4,0,5.8,2.6,5.8,6.3c0,5.7,0,11.4,0,17.1
		c0,3.8-2.5,6.3-6,6.3c-3.4,0-5.7-2.6-5.8-6.3C123.4,20.6,123.4,17.8,123.4,14.9z"/>
	<path class="st0" d="M75.7,14.8c0,2.9,0,5.8,0,8.7c0,3.7-2.4,6.2-5.8,6.3c-3.4,0-5.9-2.6-5.9-6.4c0-5.7,0-11.4,0-17.1
		c0-3.7,2.5-6.2,5.9-6.2c3.4,0,5.7,2.5,5.8,6.1C75.8,9,75.7,11.9,75.7,14.8C75.7,14.8,75.7,14.8,75.7,14.8z"/>
</g>
</svg>
