<?xml version="1.0" encoding="utf-8"?>
<!-- Generator: Adobe Illustrator 22.0.1, SVG Export Plug-In . SVG Version: 6.00 Build 0)  -->
<svg version="1.1" id="Layer_1" xmlns="http://www.w3.org/2000/svg" xmlns:xlink="http://www.w3.org/1999/xlink" x="0px" y="0px"
	 viewBox="0 0 179.5 132" style="enable-background:new 0 0 179.5 132;" xml:space="preserve">
<style type="text/css">
	.st0{fill:#FFFFFF;}
</style>
<g>
	<path class="st0" d="M157.1,38.5c0,1.5,0.3,2.7-0.6,3.8c-0.9,1-2.7,1.7-3.8,2.4c-1.8,1.1-2.5,1.3-3.1,3.2c-0.4,1.3-0.2,2.9-0.4,4.2
		c-0.8,6.1-3.8,8-9.7,8c2.1,14.2,2,28.4-6.6,40.7c-4,5.8-8,8-14.7,8.8c-6.4,0.7-13.4,6.4-17.2,11.3c4.7,3.1,10.6,4.8,11.6,11.2
		c-11.3,0-22.7,0-34,0c0.9-6,5.4-7,9.7-9.8c5.6-3.6-6.7-9.9-9.5-11.4c-5.4-3-11.9-2.3-17.6-4.8c-2.6-1.1-5.3-3.6-8-4.2
		c-2.6-0.6-5,1.1-7.8,0.5c-2.2-0.5-4-1.8-5.2-3.6c-0.8-1.1-1.1-2.6-1.9-3.7c-1.1-1.4-2.7-1.9-4.1-2.9c-5.4-3.6-4.6-8.6-7.2-13.6
		c-1.6-3.1-4.4-6.4-4.7-9.8c-0.4-3.8,0.5-6.4,2-9.8c0.7-1.5,1.6-3,2.1-4.5c0.5-1.7,0.3-1.1-0.2-2.7c-1.1-3.1-2.3-5.4-2.2-8.9
		C24.8,30,39.9,24.7,49.4,32.4c5.8,4.7,11.3,10,16.9,15.1c4.2,3.8,9.5,10.8,15.9,9.9c6.3-0.9,12.8-7.6,17.8-11.2
		c6-4.3,11.9-8.6,17.9-12.8c0.7-0.5,2.1-1.1,2.6-1.8c0.7-1.2,0.3-0.2,0-1.7c-0.3-1.4-1.1-2.8-1.4-4.2c-0.6-2.7-0.5-5.5,0.4-8.1
		c0.7-2,1.9-3.7,3.6-5c0.9-0.7,1.9-1.2,2.9-1.6c1-0.3,3.4,0,4.1-0.5c0.7-0.5,1.3-3.8,1.7-4.6c0.6-1.2,1.3-2.4,2.3-3.3
		c1.6-1.7,3.7-2.6,6.1-2.6c5.2,0,7.6,4.2,8.5,8.8c0.2,1.3,0.1,3.1,0.9,3.8c0.6,0.6,2,0.7,2.7,1.4c1.5,1.5,1.6,3.4,1.1,5.4
		c-0.3,1.4-0.9,2.7-1.6,4c-0.7,1.3-2.7,3.4-3,4.8C148.4,30.5,155.3,36.4,157.1,38.5z"/>
</g>
</svg>
