<?xml version="1.0" encoding="utf-8"?>
<!-- Generator: Adobe Illustrator 22.0.1, SVG Export Plug-In . SVG Version: 6.00 Build 0)  -->
<svg version="1.1" id="Layer_1" xmlns="http://www.w3.org/2000/svg" xmlns:xlink="http://www.w3.org/1999/xlink" x="0px" y="0px"
	 viewBox="0 0 199.2 132" style="enable-background:new 0 0 199.2 132;" xml:space="preserve">
<style type="text/css">
	.st0{fill:#FFFFFF;}
</style>
<g>
	<path class="st0" d="M127.7,57.9c-1.8-1.1-3.9-1.6-6.1-1.6c-2.3,0-4.3,0.5-6.1,1.6c-1.8,1.1-3.3,2.6-4.3,4.5
		c-1.1,1.9-1.6,4.2-1.6,6.7c0,2.5,0.5,4.7,1.6,6.7c1.1,1.9,2.5,3.4,4.3,4.5c1.8,1.1,3.9,1.6,6.1,1.6c2.3,0,4.3-0.5,6.1-1.6
		c1.8-1.1,3.3-2.6,4.3-4.5c1.1-1.9,1.6-4.2,1.6-6.7c0-2.5-0.5-4.7-1.6-6.7C131,60.5,129.5,59,127.7,57.9z"/>
	<path class="st0" d="M192.2,71.8c-2-11.1-8.7-19.1-18.2-24.9c-1-0.6-2.2-1.6-2.4-2.7c-4-19.7-23-29-41.6-23.1
		c-2.1,0.7-3,0.2-4.2-1.4C117.3,8,105.8,1,91.4,0.2C70.5-1,55.3,8.5,45.7,27.1c-0.7,1.4-1.5,2-3.1,2.1c-11.1,0.5-20.5,5-28.1,13
		C6.7,50.4,2.6,60.1,4.4,71.5c2.6,16.6,14.3,28.3,31,31.8c1.6,0.3,2.6,1.1,3.5,2.6c9.5,16.5,23.6,25.7,42.9,25.8
		c9.8,0,18.8-3.2,27.3-8.6c1.3,0.9,2.4,1.8,3.5,2.5c5.2,3.6,11,5.8,17.3,6.2c13.1,0.8,22.6-5,29.3-16.1c0.6-0.9,1.8-1.8,2.9-2
		c6-1.4,11.7-3.7,16.5-7.6C189.4,97.2,194.8,85.9,192.2,71.8z M64.8,75.8c1,1.9,2.5,3.4,4.4,4.5c1.9,1.1,4.1,1.6,6.5,1.6
		c4.1,0,7.6-1.7,10.5-5.2l8.1,7.3c-2.2,2.7-4.9,4.8-8.2,6.3c-3.3,1.4-7,2.2-11.1,2.2c-4.7,0-8.9-1-12.6-3c-3.7-2-6.7-4.7-8.8-8.3
		c-2.1-3.5-3.2-7.5-3.2-12s1.1-8.5,3.2-12c2.1-3.5,5.1-6.3,8.8-8.3c3.7-2,7.9-3,12.6-3c4.1,0,7.8,0.7,11.1,2.2
		c3.3,1.4,6,3.5,8.2,6.3l-8.1,7.3c-2.9-3.5-6.4-5.2-10.5-5.2c-2.4,0-4.6,0.5-6.5,1.6c-1.9,1.1-3.4,2.6-4.4,4.5
		c-1,1.9-1.6,4.2-1.6,6.7C63.2,71.6,63.8,73.8,64.8,75.8z M143.2,81.1c-2.2,3.5-5.1,6.3-8.9,8.3c-3.8,2-8,3-12.8,3
		c-4.7,0-9-1-12.8-3c-3.8-2-6.7-4.8-8.9-8.3c-2.2-3.5-3.2-7.5-3.2-12c0-4.4,1.1-8.4,3.2-12c2.2-3.5,5.1-6.3,8.9-8.3
		c3.8-2,8-3,12.8-3c4.7,0,9,1,12.8,3c3.8,2,6.7,4.8,8.9,8.3c2.2,3.5,3.2,7.5,3.2,12C146.4,73.5,145.3,77.5,143.2,81.1z"/>
</g>
</svg>
