<?xml version="1.0" encoding="utf-8"?>
<!-- Generator: Adobe Illustrator 22.0.1, SVG Export Plug-In . SVG Version: 6.00 Build 0)  -->
<svg version="1.1" id="Layer_1" xmlns="http://www.w3.org/2000/svg" xmlns:xlink="http://www.w3.org/1999/xlink" x="0px" y="0px"
	 viewBox="0 0 179.5 132" style="enable-background:new 0 0 179.5 132;" xml:space="preserve">
<style type="text/css">
	.st0{fill:#FFFFFF;}
</style>
<g>
	<path class="st0" d="M103,57.7c-1.6-0.9-3.4-1.4-5.4-1.4c-2,0-3.8,0.5-5.4,1.4c-1.6,0.9-2.9,2.2-3.8,3.9c-0.9,1.7-1.4,3.6-1.4,5.8
		c0,2.2,0.5,4.1,1.4,5.8c0.9,1.7,2.2,3,3.8,3.9c1.6,0.9,3.4,1.4,5.4,1.4c2,0,3.8-0.5,5.4-1.4c1.6-0.9,2.9-2.2,3.8-3.9
		c0.9-1.7,1.4-3.6,1.4-5.8c0-2.2-0.5-4.1-1.4-5.8C105.9,59.9,104.6,58.6,103,57.7z"/>
	<path class="st0" d="M173.3,34.3c-9.5-15.3-28.1-22.1-45.5-16.4c-1.5,0.5-2.4,0.4-3.6-0.9C112.3,4.1,97.3-1.7,79.6,0.4
		C62.7,2.3,50,10.9,41.3,25.2c-0.8,1.3-1.4,1.6-2.9,1.5c-4.6-0.5-9.3-0.2-13.8,1.2C12.1,31.7,3.5,39.5,1.3,52.4
		C-1,65,4.3,74.8,14.8,82.2c0.4,0.3,0.8,0.6,1.2,0.9c-0.2,0.5-0.4,1-0.6,1.4c-2.9,6.3-3.6,12.9-1.9,19.7c4.8,18.7,26,27.9,43.6,19.1
		c1-0.5,1.7-1,3-0.2c19.4,12.6,41.2,11.9,59.8-1.9c0.5-0.4,1.6-0.4,2.3-0.2c3.6,1,7.2,2.6,10.9,3c22.6,2.1,39.6-18.5,32.7-39.6
		c-0.5-1.5-0.3-2.4,0.9-3.5C179.8,68.7,182.5,49.1,173.3,34.3z M48.2,73.2c0.9,1.7,2.2,3,3.8,3.9c1.7,0.9,3.5,1.4,5.7,1.4
		c3.6,0,6.7-1.5,9.2-4.6l7,6.4c-1.9,2.4-4.3,4.2-7.1,5.5c-2.9,1.3-6.1,1.9-9.6,1.9c-4.1,0-7.8-0.9-11-2.6c-3.3-1.7-5.8-4.1-7.7-7.2
		c-1.9-3.1-2.8-6.6-2.8-10.5s0.9-7.4,2.8-10.5c1.9-3.1,4.4-5.5,7.7-7.2c3.3-1.7,6.9-2.6,11-2.6c3.6,0,6.8,0.6,9.6,1.9
		c2.9,1.3,5.2,3.1,7.1,5.5l-7,6.4c-2.5-3-5.6-4.6-9.2-4.6c-2.1,0-4,0.5-5.7,1.4c-1.7,0.9-2.9,2.2-3.8,3.9c-0.9,1.7-1.4,3.6-1.4,5.8
		C46.8,69.6,47.2,71.5,48.2,73.2z M116.5,77.8c-1.9,3.1-4.5,5.5-7.8,7.2c-3.3,1.7-7,2.6-11.1,2.6c-4.1,0-7.8-0.9-11.1-2.6
		c-3.3-1.7-5.9-4.2-7.8-7.2c-1.9-3.1-2.8-6.6-2.8-10.4c0-3.9,0.9-7.3,2.8-10.4c1.9-3.1,4.5-5.5,7.8-7.2c3.3-1.7,7-2.6,11.1-2.6
		c4.1,0,7.8,0.9,11.1,2.6c3.3,1.7,5.9,4.2,7.8,7.2c1.9,3.1,2.8,6.6,2.8,10.4C119.3,71.3,118.4,74.8,116.5,77.8z M143.2,97.7h-19.9
		v-4.4l9.3-8c0.9-0.8,1.6-1.4,1.9-2c0.3-0.5,0.5-1,0.5-1.5c0-0.6-0.3-1.1-0.8-1.5c-0.5-0.4-1.3-0.6-2.4-0.6c-1,0-1.9,0.2-2.6,0.6
		c-0.8,0.4-1.4,1-1.8,1.7l-5.4-2.9c0.9-1.6,2.2-2.8,4-3.7c1.8-0.9,4-1.3,6.5-1.3c3,0,5.4,0.7,7.2,2c1.8,1.3,2.7,3.1,2.7,5.2
		c0,1.2-0.3,2.3-0.9,3.4c-0.6,1.1-1.8,2.4-3.5,3.9l-4.2,3.6h9.5V97.7z"/>
</g>
</svg>
