<?xml version="1.0" encoding="utf-8"?>
<!-- Generator: Adobe Illustrator 22.0.1, SVG Export Plug-In . SVG Version: 6.00 Build 0)  -->
<svg version="1.1" id="Layer_1" xmlns="http://www.w3.org/2000/svg" xmlns:xlink="http://www.w3.org/1999/xlink" x="0px" y="0px"
	 viewBox="0 0 179.5 132" style="enable-background:new 0 0 179.5 132;" xml:space="preserve">
<style type="text/css">
	.st0{fill:#FFFFFF;}
</style>
<path class="st0" d="M132,84.6c0-7.7,0-15.4,0-23.1c0-2.5-0.6-3.3-3.2-2.3c-4.3,1.7-8.6,3.2-13,4.6c-2.2,0.7-3,1.9-2.9,4.2
	c0.1,13.1,0,26.3,0,39.4c0,2.7-0.5,5.1-2.9,6.8c-2.2,1.5-4.6,1.8-7,0.5c-2.6-1.4-3.8-3.6-3.8-6.5c0-7.5,0-15,0-22.4
	c0-4.2-0.1-8.3,0-12.5c0.1-2.5-0.5-3.3-3.1-2.3c-4.4,1.7-8.8,3.3-13.3,4.8c-2.1,0.7-2.7,1.9-2.7,4c0.1,8.3,0,16.7,0,25
	c0,1.4,0.1,2.8-0.1,4.2c-0.3,3.8-3.3,6.7-6.9,6.6c-3.7,0-6.6-2.8-6.6-6.8c-0.1-7.2,0-14.3,0-21.5c0-5.4,0-5.4-5.2-3.6
	c-3.5,1.2-7,2.6-10.6,3.7c-2.4,0.8-3.4,2.1-3.3,4.7c0.1,5.4,0.2,10.9,0,16.3c-0.3,6-5.8,9-10.7,6c-2.1-1.3-2.9-3.3-2.9-5.7
	c0-4.1-0.1-8.1,0-12.2c0-2.3-0.7-2.8-2.9-2c-6.7,2.5-13.4,4.9-20.2,7.3c-4.4,1.5-8.2-0.2-9.6-4.2c-1.2-3.6,0.7-7.1,5-8.7
	c8-3,16-6,24.1-8.7c2.7-0.9,3.6-2.3,3.5-5.1c-0.1-16.8,0-33.5-0.1-50.3c0-2.5,0.2-5,2.4-6.6c2.1-1.6,4.4-2.2,6.9-1.1
	c3,1.3,4.3,3.8,4.4,6.9c0.1,4.7,0,9.4,0,14.1c0,10.6,0,21.1,0,31.7c0,3.9,0.1,4,3.7,2.8c4-1.4,8-3,12.1-4.2c2.4-0.7,3.3-2,3.3-4.6
	c-0.1-12.6-0.1-25.2-0.1-37.8c0-1,0-1.9,0-2.9c0.3-3.8,3.1-6.4,6.7-6.4c3.5,0,6.5,2.7,6.8,6.3c0.2,2.5,0.1,5.1,0.1,7.7
	c0,9.4,0,18.8,0,28.2c0,2.4,0.5,3.4,3.1,2.3c4.4-1.7,8.8-3.3,13.3-4.8c2.1-0.7,2.8-1.9,2.8-4c-0.1-8.9,0-17.7,0-26.6
	c0-0.7,0-1.5,0-2.2c0.2-4,3.3-7,6.9-7c3.9,0.1,6.7,2.9,6.7,7.1c0.1,7.8,0.1,15.6,0,23.4c-0.1,2.9,0.8,3.2,3.3,2.2
	c4.3-1.7,8.6-3.2,12.9-4.7c2-0.7,2.9-1.9,2.8-4c-0.1-5.1,0-10.3,0-15.4c0-1.3,0.1-2.6,0.5-3.8c1-3.2,4-5.1,7.1-4.7
	c3.5,0.4,5.9,2.7,6,6.4c0.1,4.1,0.2,8.1,0,12.2c-0.1,2.5,0.6,3.3,3.1,2.3c6.4-2.4,12.9-4.7,19.3-6.9c4.8-1.7,8.8-0.2,10.1,3.6
	c1.4,4-0.6,7.4-5.5,9.3c-7.9,2.9-15.8,5.8-23.8,8.6c-2.5,0.8-3.2,2.2-3.2,4.7c0.1,17,0,34,0.1,51c0,2.2-0.2,4.3-2,5.9
	c-3.8,3.6-9.7,2-11.3-3c-0.5-1.7-0.4-3.4-0.4-5.1C132,98.5,132,91.5,132,84.6C132,84.6,132,84.6,132,84.6z"/>
</svg>
