<?xml version="1.0" encoding="utf-8"?>
<!-- Generator: Adobe Illustrator 23.0.3, SVG Export Plug-In . SVG Version: 6.00 Build 0)  -->
<svg version="1.1" xmlns="http://www.w3.org/2000/svg" xmlns:xlink="http://www.w3.org/1999/xlink" x="0px" y="0px"
	 viewBox="0 0 179.5 132" style="enable-background:new 0 0 179.5 132;" xml:space="preserve">
<style type="text/css">
	.st0{display:none;}
	.st1{display:inline;fill:#E8E8E8;}
	.st2{fill:#FFFFFF;}
	.st3{fill:#FFFFFF;stroke:#FFFFFF;stroke-width:3;stroke-miterlimit:10;}
	.st4{fill:#FFFFFF;stroke:#FFFFFF;stroke-miterlimit:10;}
	.st5{fill:#FFFFFF;stroke:#FFFFFF;stroke-width:4;stroke-miterlimit:10;}
</style>
<g id="Layer_3" class="st0">
	<rect class="st1" width="179.5" height="132"/>
</g>
<g id="Layer_1">
	<path class="st2" d="M60.5,97.3c-12.5,0-25.1,0-37.6,0c-7-2.2-10.9-7-11.7-14.3c-0.2-1.6-0.5-3.2-0.7-4.8c0-3.7,0-7.4,0-11.1
		c0.1-0.4,0.2-0.7,0.3-1.1c1.6-13.3,7.8-24.3,16.9-34c2.2-2.3,4.6-2.9,7.5-2.8c13.5,0.5,27,0.4,40.5,0c2.1-0.1,4.2,0,5.8,1.6
		c5.2,5.3,9.7,11,12.9,17.6 M51.6,49.6c-2.7,2.9-4.5,6.2-5.2,10c-0.2,1.2-0.1,2.4,0.5,3.4c0.7,1.4,1.7,2.5,3.4,2.2
		c1.6-0.2,2.6-1.4,2.8-3.1c0.3-1.7,0-3.4-0.6-5C51.6,54.9,51,52.4,51.6,49.6z M69.1,66.5c-3.7,0.7-6.6-0.2-9.5-1.1
		c-0.9-0.3-1.9-0.4-2.9-0.4c-2.4,0.1-4,1.4-4.2,3.2c-0.1,1.7,1.6,3.4,3.9,3.6c0.9,0.1,1.9,0.1,2.9-0.1C62.9,70.8,65.8,69,69.1,66.5z
		 M61,74.5c-3.1,0.4-5.5-0.4-8-1c-1.6-0.4-3.2-0.7-4.8-0.6c-1.6,0.2-2.9,0.9-3.2,2.6c-0.4,1.8,0.6,2.9,2.2,3.7
		c1,0.5,2.1,0.7,3.2,0.5C54.2,79.1,57.5,77.2,61,74.5z M76.1,59c-2.6,0.4-5-0.1-7.5-0.9c-1.1-0.4-2.2-0.6-3.2-0.7
		c-3-0.3-4.9,0.9-4.9,3.2c0,2.2,2.2,3.8,4.9,3.7c0.4,0,0.7-0.1,1.1-0.1C70.2,63.3,73.3,61.5,76.1,59z M43.5,57.7
		c-2.6,2.9-4.3,6.1-5.1,9.8c-0.4,1.7,0.1,3.2,1.1,4.6c0.7,1,1.7,1.4,2.9,1.2c1.2-0.1,2-0.9,2.4-2.1c0.5-1.5,0.5-3.1,0.1-4.6
		C44.1,63.7,43.1,60.8,43.5,57.7z M59.4,41.7c-2.7,3-4.5,6.4-5.3,10.3c-0.3,1.4,0.1,2.8,0.7,4c0.7,1.2,1.8,2,3.3,1.7
		c1.4-0.3,2.4-1.3,2.6-2.7c0.3-1.8,0.1-3.5-0.5-5.2C59.2,47.1,58.7,44.5,59.4,41.7z M75.5,42.7c-4.4,1.8-8.1,3.5-10.8,6.8
		c-1.4,1.7-1.3,3.6,0.3,4.9c1.4,1.2,3.1,1.1,4.4-0.6C71.8,50.7,74,47.3,75.5,42.7z M33.4,86.2c0.2-0.1,0.4-0.1,0.5-0.1
		c2.3-1.9,4.7-3.6,6.7-5.7c1-1-0.6-1.7-1.1-2.4c-0.6-0.6-1.3-1.1-2-0.3c-1.7,2-3.4,4.1-4.9,6.2C31.6,84.9,32.1,85.8,33.4,86.2z"/>
	<path class="st2" d="M75.2,2c5.5,1.1,10,3.9,13.8,8c1.2,1.3,1.4,2.3,0.1,3.7c-2.7,2.7-4.3,6.2-6.3,9.4c-1.8,2.8-4,4-7.5,3.9
		c-13.7-0.2-27.4-0.1-41.1,0c-2.6,0-4.3-0.9-5.8-2.9c-2.7-3.7-4.7-7.9-7.8-11.3c-0.9-1.1-0.1-1.8,0.5-2.5c3.7-4.2,8.2-7,13.6-8.3
		C48.1,2,61.7,2,75.2,2z"/>
</g>
<g id="Layer_2">
	<g id="Layer_1_2_">
		<polyline id="polyline35_1_" class="st3" points="149.6,60.1 165.2,70.2 151.1,73.3 		"/>
		<path class="st4" d="M113.9,77C92.8,77,75.7,89.1,75.7,104s17.1,26.9,38.2,26.9S152,118.8,152,104S134.9,77,113.9,77z
			 M123.1,105.6c-7.9,0.7-18.9-3-21-6.1c-1.6-2.4,14.1-10.7,18.6-12.3c4.7-1.6,14.6,1.1,15.2,7.4
			C136.4,100.8,128.7,105.1,123.1,105.6z"/>
		<path class="st4" d="M130.2,48.2c-12.9,0-23.4,7.9-23.4,17.6s10.5,17.6,23.4,17.6s23.4-7.9,23.4-17.6S143.1,48.2,130.2,48.2z
			 M137.8,60c-1.6,0-2.8-1.3-2.8-2.8c0-1.6,1.3-2.8,2.8-2.8c1.6,0,2.8,1.3,2.8,2.8C140.6,58.7,139.4,60,137.8,60z"/>
	</g>
	<line class="st5" x1="49.1" y1="126.9" x2="131.6" y2="6.8"/>
</g>
</svg>
