<?xml version="1.0" encoding="utf-8"?>
<!-- Generator: Adobe Illustrator 22.0.1, SVG Export Plug-In . SVG Version: 6.00 Build 0)  -->
<svg version="1.1" id="Layer_1" xmlns="http://www.w3.org/2000/svg" xmlns:xlink="http://www.w3.org/1999/xlink" x="0px" y="0px"
	 viewBox="0 0 179.5 132" style="enable-background:new 0 0 179.5 132;" xml:space="preserve">
<style type="text/css">
	.st0{fill:#FFFFFF;}
</style>
<path class="st0" d="M133.8,132.9c-29.6,0-59.2,0-88.8,0c-9.8-3.1-15.2-9.8-16.3-20c-0.3-2.2-0.7-4.5-1-6.7c0-5.2,0-10.3,0-15.5
	c0.1-0.5,0.3-1,0.4-1.5c2.2-18.6,10.9-33.9,23.5-47.4c3-3.2,6.4-4,10.5-3.9c18.8,0.7,37.6,0.6,56.4,0c2.9-0.1,5.8,0,8.1,2.3
	c9.7,9.8,17.6,20.8,21.8,34.1c1.7,5.3,2.6,10.8,3.5,16.3c0,5.4,0,10.8,0,16.1c-0.2,1-0.4,2-0.5,3
	C150.2,121.1,145.9,129.9,133.8,132.9z M84.9,66.4c-3.7,4.1-6.3,8.7-7.2,14c-0.3,1.7-0.1,3.3,0.7,4.8c1,2,2.4,3.5,4.8,3.1
	c2.3-0.3,3.6-2,3.9-4.3c0.4-2.4,0-4.7-0.8-7C84.9,73.7,84.1,70.3,84.9,66.4z M109.4,89.9c-5.2,1-9.2-0.3-13.2-1.6
	c-1.3-0.4-2.6-0.6-4-0.6c-3.3,0.1-5.6,1.9-5.8,4.5c-0.1,2.4,2.3,4.7,5.4,5c1.3,0.1,2.7,0.1,4-0.2C100.7,95.9,104.8,93.4,109.4,89.9z
	 M98,101.1c-4.3,0.5-7.7-0.6-11.2-1.4c-2.2-0.6-4.4-1-6.7-0.8c-2.2,0.3-4,1.2-4.4,3.6c-0.5,2.5,0.9,4.1,3,5.1c1.4,0.7,2.9,1,4.5,0.7
	C88.6,107.5,93.2,104.9,98,101.1z M119.1,79.5c-3.6,0.6-7-0.2-10.4-1.3c-1.5-0.5-3-0.9-4.5-1c-4.2-0.4-6.8,1.3-6.8,4.4
	c0,3,3,5.3,6.9,5.1c0.5,0,1-0.1,1.5-0.2C110.8,85.5,115.2,83,119.1,79.5z M73.7,77.6c-3.6,4-6,8.5-7.1,13.7
	c-0.5,2.4,0.2,4.5,1.5,6.4c1,1.4,2.4,1.9,4.1,1.7c1.7-0.2,2.8-1.3,3.3-2.9c0.7-2.1,0.7-4.3,0.1-6.4C74.5,86,73.1,82,73.7,77.6z
	 M95.8,55.3c-3.7,4.2-6.3,8.9-7.4,14.4c-0.4,2,0.1,3.9,1,5.6c1,1.7,2.5,2.8,4.6,2.4c2-0.4,3.3-1.8,3.6-3.8c0.4-2.5,0.1-4.9-0.7-7.3
	C95.5,62.9,94.8,59.2,95.8,55.3z M118.2,56.8c-6.2,2.5-11.3,4.9-15.1,9.5c-2,2.4-1.8,5,0.4,6.8c2,1.7,4.3,1.6,6.2-0.9
	C113.1,67.9,116.1,63.2,118.2,56.8z M59.5,117.4c0.3-0.1,0.5-0.1,0.7-0.2c3.2-2.6,6.5-5,9.4-7.9c1.4-1.4-0.8-2.4-1.6-3.4
	c-0.8-0.9-1.8-1.6-2.8-0.4c-2.4,2.8-4.8,5.7-6.9,8.7C57.1,115.6,57.8,116.8,59.5,117.4z"/>
<path class="st0" d="M117.8,0c7.6,1.6,14,5.4,19.3,11.1c1.7,1.8,2,3.2,0.1,5.2c-3.7,3.8-6,8.7-8.8,13.1c-2.5,3.9-5.6,5.6-10.5,5.5
	c-19.1-0.3-38.2-0.2-57.3,0c-3.6,0-6-1.2-8.1-4c-3.7-5.2-6.6-11-10.9-15.8c-1.3-1.5-0.2-2.5,0.7-3.5c5.2-5.8,11.5-9.7,19-11.6
	C80.1,0,99,0,117.8,0z"/>
</svg>
