<?xml version="1.0" encoding="utf-8"?>
<!-- Generator: Adobe Illustrator 22.0.1, SVG Export Plug-In . SVG Version: 6.00 Build 0)  -->
<svg version="1.1" id="Layer_1" xmlns="http://www.w3.org/2000/svg" xmlns:xlink="http://www.w3.org/1999/xlink" x="0px" y="0px"
	 viewBox="0 0 199.2 132" style="enable-background:new 0 0 199.2 132;" xml:space="preserve">
<style type="text/css">
	.st0{fill:#FFFFFF;}
</style>
<g>
	<path class="st0" d="M134,48.9c1.6,1.6,3,2.9,4.6,4.5c1.5-2.1,2.9-4,4.1-6c1.3-2.2,2.8-3.2,5.6-3c5.4,0.3,9.8-3,11.8-7.9
		c2-5,0.7-10.5-3.3-14.2c-3.8-3.5-9.5-4.3-14.2-2.1c-7.2,3.4-9.5,12.4-4.8,19.1c1,1.5,1.1,2.4,0.1,3.8
		C136.5,44.9,135.3,46.9,134,48.9z"/>
	<path class="st0" d="M56.7,106.1c-2,1.9-4,3.6-6.4,5.7c0.5,0.9,1,1.8,1.9,2.5c1.2,0.8,2.7,1.3,4.2,1.3c0.1,0,0.1,0,0.2,0
		c1.3-1.8,2.7-3.1,4.2-4.2c0.6-0.4,1.8-0.5,2.6-0.2c5.9,2,11.4,0.6,14.7-3.9c3.5-4.6,3.3-9.9-0.2-15.2c-0.5-0.8-0.7-2.2-0.4-3.1
		c1.1-2.6,2.4-5.1,3.8-7.6c0.4-0.7,1.5-1.3,2.3-1.5c1.8-0.4,3.6-0.5,5.7-0.7c1.8,2.6,3.5,5.4,5.4,8.1c1.2,1.6,1.2,2.8,0.2,4.7
		c-2.4,4.5-2.1,9.1,1,13.2c3,4,7.3,5.6,12.2,4.6c5-1,8.2-4.2,9.5-9.2c1.2-4.6-0.5-8.4-3.4-12c3.7-5.2,7.2-10.4,11-15.5
		c2.1-2.8,2.2-3.4-0.7-5.6c-0.7-0.5-1.4-0.9-2.2-1.5c-0.7,0.8-1.2,1.5-1.7,2.2c-3.6,5.2-7.1,10.4-10.7,15.5
		c-0.6,0.8-1.5,1.7-2.3,1.8c-3.9,0.7-7.4,0.3-9-4.2c-0.4-1.1-1.7-2-2.1-3.1c-0.6-1.7-2.7-2.9-1.2-5.3c2.1-3.5,1.9-7.3-0.1-11
		c-2.4-4.5-7.7-7.1-12.7-6.4c-6,0.8-10.1,7.1-10.6,11c-0.5,4.5,2.3,7.6,4.2,11c-1.4,2.9-2.7,5.8-4.3,8.5c-0.4,0.8-1.7,1.5-2.6,1.5
		C60,87.3,54.2,95,56.8,104C57,104.7,57.1,105.7,56.7,106.1z"/>
	<path class="st0" d="M56.7,106.1c-2.6,2.5-5.4,4.9-8.1,7.3c-1.7,1.5-3.4,3-5,4.5c-0.7,0.6-1.3,1.2-2,1.8c-0.2,0.2-0.4,0.4-0.7,0.6
		c-0.3,0.3-0.5,0.3-0.3,0.7c0.5,1.6,2.3,2.7,3.8,3.1c0.7,0.2,1.7,0.6,2.3,0.2c0.9-0.6,1.8-1.7,2.6-2.5c2.9-2.8,5.8-5.5,8.8-8.2
		c0.8-0.8,1.7-1.7,2.6-2.3c1.3-0.8,2.8-0.1,4.2,0.2c1.5,0.3,3,0.5,4.5,0.4c6.2-0.5,11.4-5.9,11.2-12.2c-0.1-1.7-0.5-3.4-1.2-5
		c-0.6-1.5-1.9-2.8-2-4.4c-0.1-1.6,1-3.3,1.7-4.8c0.4-0.8,0.8-1.5,1.2-2.3c0.4-0.8,0.8-1.7,1.4-2.3c1.1-1.2,3.1-1.3,4.6-1.4
		c0.9-0.1,1.9-0.3,2.7-0.3c0.6,0,0.6,0.2,0.9,0.7c0.3,0.4,0.5,0.8,0.8,1.2c1.1,1.6,2.1,3.3,3.2,4.9c0.9,1.3,2,2.5,1.8,4.1
		c-0.3,1.7-1.4,3.2-1.9,4.8c-0.4,1.6-0.5,3.2-0.2,4.8c0.6,3.2,2.6,6.2,5.2,8.1c4.5,3.3,11.3,2.7,15.4-1c2-1.9,3.2-4.5,3.7-7.1
		c0.6-3.2-0.3-6.3-2-9c-0.2-0.4-0.5-0.7-0.7-1.1c-0.2-0.3-0.6-0.6-0.7-0.9c-0.2-0.5,1.2-2,1.6-2.5c1.1-1.6,2.2-3.2,3.3-4.8
		c2.2-3.1,4.5-6.1,6.7-9.3c0.5-0.8,1.1-1.7,0.6-2.6c-0.6-1.1-2-1.9-3-2.6c-0.3-0.2-0.8-0.7-1.1-0.8c-0.4-0.1-0.6,0.4-0.9,0.8
		c-0.6,0.7-1.1,1.5-1.7,2.3c-1.1,1.6-2.2,3.2-3.3,4.9c-2.2,3.3-4.4,6.6-6.8,9.8c-1,1.3-2.1,1.8-3.8,1.9c-1.2,0.1-2.4,0.1-3.5-0.2
		c-1.2-0.3-2.1-1-2.9-2c-0.9-1.2-1.3-2.6-2.2-3.8c-0.8-1.1-1.7-2.2-2.4-3.4c-0.8-1.5-0.2-2.6,0.5-4c3.1-6.1-0.7-13.5-6.7-16
		C83.4,54,77.7,56,74.3,60.8c-1.4,1.9-2.4,4.2-2.5,6.6c0,3,1.5,5.6,3.1,8.1c0.3,0.5,1.1,1.3,1.1,1.8c0.1,0.7-0.9,2.1-1.2,2.7
		c-0.8,1.8-1.7,3.5-2.6,5.2c-0.7,1.3-1.7,2.1-3.2,2.2c-1.3,0-2.7,0.2-4,0.5c-4.8,1.4-8.3,5.5-8.8,10.5c-0.1,1.3-0.1,2.6,0.2,3.9
		C56.6,103.2,57.5,105.3,56.7,106.1z"/>
	<path class="st0" d="M161.1,122.3c-3.5,0-57,0-60.5,0c-16.9,0-33.9,0-50.8,0H48c0,0-0.1,0.1-0.2,0.1c-1,0-2-0.3-2.9-0.9
		c-0.6-0.4-1-1-1.4-1.6c0,0,0,0,0,0c0-0.1,0-0.1,0-0.1c0,0,0,0,0,0c-0.1-0.1,0-0.2,0-0.3c0-0.5-0.1-0.8-0.1-1
		c0-9.4,0.1-18.7,0.1-28.1c0-4.6-0.1-9.2-0.1-13.8c0-7.2,0-64.4,0-71.6c0-1.8-0.4-3.2-2-4.1c-3.9-2-7.5,0.2-7.5,4.5
		c0,14.5,0.1,79,0.1,93.5c0,9.5-0.1,19-0.1,28.5c0,3.3,1.2,4.6,4.4,4.6c24.3,0,98.5,0,122.8,0c3.1,0,4.3-1.4,4.3-4.8
		C165.3,123.7,164.1,122.4,161.1,122.3z"/>
	<path class="st0" d="M118,40.8c6.4,6.3,12.7,12.6,18.9,18.8c8.7,8.6,17.3,17.3,25.9,25.9c0.3,0.3,0.6,0.5,0.8,0.8
		c1.9,2.1,2,4.8,0.2,6.6c-1.8,1.8-4.4,1.7-6.5-0.3c-4.3-4.2-8.6-8.5-12.9-12.8c-5.1-5-10.2-10-15.2-15.1
		c-5.2-5.2-10.4-10.5-15.6-15.7c-0.7-0.7-1.4-1.3-2-1.9c-15.6,9.3-29.6,2.3-35.6-6.3c-7.3-10.4-6-24.3,3-33.2c8.9-8.7,23-9.6,33-2.3
		C121.5,12.2,126.7,26.4,118,40.8z M97,44.1c10.1,0,18.3-8.1,18.2-18.2c0-9.9-8.4-18.3-18.3-18.3c-10,0-18.1,8.2-18.1,18.3
		C78.9,36.2,86.8,44.1,97,44.1z"/>
	<path class="st0" d="M138.6,53.4c-1.7-1.6-3-3-4.6-4.5c1.3-2,2.5-4,4-5.8c1.1-1.4,1-2.3-0.1-3.8c-4.8-6.7-2.4-15.6,4.8-19.1
		c4.7-2.2,10.4-1.4,14.2,2.1c4,3.6,5.2,9.2,3.3,14.2c-2,4.9-6.4,8.2-11.8,7.9c-2.8-0.2-4.3,0.8-5.6,3
		C141.5,49.4,140.1,51.3,138.6,53.4z"/>
</g>
</svg>
