<?xml version="1.0" encoding="utf-8"?>
<!-- Generator: Adobe Illustrator 22.0.1, SVG Export Plug-In . SVG Version: 6.00 Build 0)  -->
<svg version="1.1" id="Layer_1" xmlns="http://www.w3.org/2000/svg" xmlns:xlink="http://www.w3.org/1999/xlink" x="0px" y="0px"
	 viewBox="0 0 179.5 132" style="enable-background:new 0 0 179.5 132;" xml:space="preserve">
<style type="text/css">
	.st0{fill:#FFFFFF;}
</style>
<path class="st0" d="M89.8,132c-18,0-36,0-54,0c-5.8,0-10.3-3.3-11.6-8.6c-0.3-1.1-0.4-2.3-0.4-3.5c0-26.8,0-53.6,0-80.4
	c0-7.3,4.7-12.1,12.1-12.1c6.3,0,12.6,0,18.8,0c2,0,2,0,2-1.9c0-4.6,0-9.1,0-13.7c0-6.8,4.7-11.7,11.5-11.7C82.6,0,96.9,0,111.3,0.1
	c6.8,0,11.5,4.9,11.5,11.7c0,4.6,0.1,9.2,0,13.8c0,1.4,0.5,1.8,1.9,1.8c6.4-0.1,12.8-0.1,19.1,0c5,0,8.8,2.1,11,6.8
	c0.7,1.6,1,3.3,1,5c0,27,0,54,0,81c0,7-4.9,11.8-11.9,11.8C125.8,132,107.8,132,89.8,132z M57.1,79.6c0,2.3,0.1,4.6,0,6.9
	c-0.3,4.6,3,6.8,6.7,6.7c3.6-0.1,7.2,0,10.7,0c1.4,0,1.8,0.5,1.8,1.8c-0.1,3.8,0,7.6,0,11.3c0,3.6,2.4,6,6,6c5,0,9.9,0,14.9,0
	c3.7,0,6.1-2.4,6.1-6.1c0-3.8,0-7.6,0-11.3c0-1.3,0.4-1.7,1.7-1.7c3.6,0.1,7.3,0,10.9,0c4.3,0,6.6-2.3,6.6-6.5c0-4.7-0.1-9.3,0-14
	c0.2-4.3-2.8-6.7-6.6-6.7c-3.6,0-7.2,0-10.7,0c-1.5,0-1.9-0.5-1.8-1.9c0.1-3.7,0-7.5,0-11.2c0-3.7-2.4-6.1-6.1-6.1
	c-4.9,0-9.8,0-14.7,0c-3.8,0-6.1,2.4-6.1,6.2c0,3.8,0,7.6,0,11.3c0,1.2-0.4,1.6-1.6,1.6c-3.8-0.1-7.6-0.1-11.3,0
	c-3.9,0.1-6.2,2.4-6.2,6.3C57.1,74.8,57.1,77.2,57.1,79.6z M89.6,27.4c5.9,0,11.8,0,17.6,0c1.1,0,1.6-0.3,1.6-1.5
	c-0.1-1.9,0-3.8,0-5.7c-0.1-3.6-2.4-6-6-6c-8.7,0-17.3,0-26,0c-3.6,0-5.9,2.4-6,6c0,1.8,0.1,3.6,0,5.4c-0.1,1.5,0.5,1.8,1.9,1.8
	C78.2,27.4,83.9,27.4,89.6,27.4z"/>
</svg>
