<?xml version="1.0" encoding="utf-8"?>
<!-- Generator: Adobe Illustrator 22.0.1, SVG Export Plug-In . SVG Version: 6.00 Build 0)  -->
<svg version="1.1" id="Layer_1" xmlns="http://www.w3.org/2000/svg" xmlns:xlink="http://www.w3.org/1999/xlink" x="0px" y="0px"
	 viewBox="0 0 179.5 132" style="enable-background:new 0 0 179.5 132;" xml:space="preserve">
<style type="text/css">
	.st0{fill:#FFFFFF;}
</style>
<g>
	<path class="st0" d="M103.5,110.9c0.1,2.4,1.3,5.6-1.2,7.2c-1.5,1-3.9,1.3-5.6,1.6c-4,0.9-8.1,1.3-12.2,1.3
		c-8.7,0-17.5-1.8-25.4-5.5c-17.8-8.2-30.9-25-34.3-44.2c-3.4-19.2,2.7-39.2,16.3-53.1C54,5,72.7-1.7,91.1,0.4
		C110,2.6,127.3,14,136.7,30.5c4.1,7.2,6.7,15.2,7.6,23.4c0.2,1.6,0.7,3.9-0.2,5.4c-0.8,1.4-2.6,2.1-4.1,1.6
		c-0.9-0.3-1.4-0.9-1.9-1.7c-0.6-0.9-1.3-1.8-2-2.6c-0.6-0.7-1.1-1.4-1.7-2c-0.3-0.3-0.9-0.7-1.1-1.1c-0.2-0.3-0.2-1-0.3-1.4
		c-0.1-0.6-0.2-1.1-0.4-1.7c-0.3-1.1-0.6-2.2-0.9-3.3c-0.6-2.2-1.4-4.4-2.3-6.5c-1.7-3.9-3.9-7.6-6.5-10.9
		c-5.8-7.3-13.9-12.7-22.7-15.9c-19.9-7.1-42.9,0.4-55.6,17.2c-11,14.6-12.9,34.7-4.9,51.2c9.2,18.8,30.2,30.6,51,27.6
		c1.5-0.2,2.9-0.5,4.3-0.8c1.4-0.3,2.8-0.8,4.2-1.1C101.4,107.2,103.5,108.7,103.5,110.9z"/>
	<path class="st0" d="M133.7,67.1c1.8,2.3,3.3,4.9,4.9,7.4c1.6,2.5,3.2,4.9,4.8,7.4c2.8,4.5,5.6,9.1,7.9,13.9
		c2.3,4.9,4.7,10.2,4.3,15.7c-0.3,5.4-2.8,10.6-6.7,14.4c-7.3,7-18.9,8.2-27.4,2.6c-4-2.7-7.1-6.6-8.7-11.1c-0.8-2.4-1.3-5-1.2-7.6
		c0.1-3,1-5.8,2.1-8.6C118.6,88.8,126.5,78,133.7,67.1z M133.8,87.1c-3.3,5.1-6.5,10.5-8.9,16.1c-1.2,2.7-2.4,5.5-2,8.4
		c0.3,2.4,1.4,4.6,3.2,6.3c3.3,3.1,8.3,4,12.5,2c2.1-1,3.8-2.8,4.9-4.8c1.6-2.9,1.4-5.7,0.3-8.8C141.4,99.5,137.5,93.3,133.8,87.1z"
		/>
	<path class="st0" d="M122.7,59.1c-0.2-3.9-0.7-8.1-2.4-11.7c-1.3-2.8-2.8-5.5-4.4-8c-2.3-3.6-5.1-7-8.5-9.6
		c-4-3.1-8.7-5.3-13.5-6.5c-10.2-2.6-21.3-0.9-30.3,4.8C55.4,33.3,49.4,41.5,47,50.8c-1.1,4.2-1.5,8.6-1.1,12.9
		c0.2,1.9,0.2,4.4,1.3,6c1.1,1.7,3.2,2.5,5.1,2c1.9-0.4,3.6-1.9,4.3-3.7c0.9-2.2,0.2-4.6,0.1-6.9c-0.2-5.4,1.4-10.8,4.3-15.3
		c5.2-8.2,14.6-13.2,24.3-12.7c4.2,0.2,8.5,1.4,12.1,3.5c1.8,1,3.3,2.5,4.7,4c2.8,3,5.2,6.5,6.8,10.2c1.2,2.8,1.7,5.7,2.1,8.7
		c0.2,1.8,0.4,3.6,0.2,5.4c-0.2,1.9-0.4,3.7,1.2,5.1c3.2,2.9,8.5,0.6,9.6-3.2C122.8,64.5,122.8,61.6,122.7,59.1z"/>
	<path class="st0" d="M95.3,60.5c0,4.5-2.9,8.7-7.1,10.3c-4.3,1.6-9.4,0.3-12.3-3.3c-2.9-3.5-3.3-8.7-1-12.6c2.3-3.9,7-6,11.5-5.2
		C91.5,50.6,95.3,55.3,95.3,60.5z"/>
</g>
</svg>
