<?xml version="1.0" encoding="utf-8"?>
<!-- Generator: Adobe Illustrator 22.0.1, SVG Export Plug-In . SVG Version: 6.00 Build 0)  -->
<svg version="1.1" id="Layer_1" xmlns="http://www.w3.org/2000/svg" xmlns:xlink="http://www.w3.org/1999/xlink" x="0px" y="0px"
	 viewBox="0 0 179.5 132" style="enable-background:new 0 0 179.5 132;" xml:space="preserve">
<style type="text/css">
	.st0{fill:#FFFFFF;}
</style>
<g>
	<g>
		<path class="st0" d="M106.2,88.8V16.6c0-9.1-7.4-16.5-16.5-16.5c-9.1,0-16.5,7.4-16.5,16.5v72.2c-5.1,4.5-8.2,11.1-8.2,18.4
			c0,13.6,11.1,24.7,24.7,24.7c13.6,0,24.7-11.1,24.7-24.7C114.5,99.9,111.3,93.3,106.2,88.8z M89.8,123.7
			c-9.1,0-16.5-7.4-16.5-16.5c0-6.1,3.3-11.4,8.2-14.3V16.6c0-4.6,3.7-8.3,8.2-8.3c4.6,0,8.2,3.7,8.2,8.3v76.3
			c4.9,2.8,8.2,8.2,8.2,14.3C106.2,116.3,98.8,123.7,89.8,123.7z"/>
		<circle class="st0" cx="89.8" cy="107.2" r="12.4"/>
	</g>
</g>
</svg>
