<?xml version="1.0" encoding="utf-8"?>
<!-- Generator: Adobe Illustrator 23.0.3, SVG Export Plug-In . SVG Version: 6.00 Build 0)  -->
<svg version="1.1" id="Layer_1" xmlns="http://www.w3.org/2000/svg" xmlns:xlink="http://www.w3.org/1999/xlink" x="0px" y="0px"
	 viewBox="0 0 179.3 131.8" style="enable-background:new 0 0 179.3 131.8;" xml:space="preserve">
<style type="text/css">
	.st0{fill:#FFFFFF;}
</style>
<path class="st0" d="M116.1,61l-1.7-4.8L107,87.4L99.2,44l-6,36.5L86.5,61l-16.7-0.1l0-4L89.4,57l2.4,7.1L99,20.5l8.6,47.5l6.2-26
	l5.2,15l43.9,0c0.5-3,0.7-6.1,0.7-9.2c0-24.4-18.9-44.2-42.2-44.2c-12.2,0-23.2,5.4-31,14.1c-7.7-8.7-18.7-14.1-31-14.1
	c-23.3,0-42.2,19.8-42.2,44.2c0,6.6,1.1,12.9,3,18.9c17.8,38.3,69.8,63.1,69.8,63.1s52.7-24.8,70.5-63.1c0.6-1.9,1.1-3.7,1.5-5.7
	L116.1,61z"/>
</svg>
