<?xml version="1.0" encoding="utf-8"?>
<!-- Generator: Adobe Illustrator 22.0.1, SVG Export Plug-In . SVG Version: 6.00 Build 0)  -->
<svg version="1.1" id="Layer_1" xmlns="http://www.w3.org/2000/svg" xmlns:xlink="http://www.w3.org/1999/xlink" x="0px" y="0px"
	 viewBox="0 0 179.5 132" style="enable-background:new 0 0 179.5 132;" xml:space="preserve">
<style type="text/css">
	.st0{fill:#FFFFFF;}
</style>
<path class="st0" d="M72.2,50.7c0-4.3,0-8.5,0-12.8c0-0.8-0.2-1.7-0.7-2.2c-4.3-4.6-9.7-6.9-15.9-6.8C42,29.2,32.8,41.1,34.4,53.1
	c1.2,8.7,5.9,14.8,14,17.8c8.4,3,16.1,1.4,22.6-4.9c0.7-0.6,1.1-1.8,1.2-2.8C72.3,59,72.2,54.9,72.2,50.7z M50.6,75.1
	c-1.5,3.5,0.5,10.4,3.8,12.6c1.3,0.9,2.7,0.7,3.6-0.5c1.3-1.8,2.3-3.8,3.4-5.7c1.2-2.2,0.7-4.4,0-6.4C57.6,75.1,54.2,75.1,50.6,75.1
	z M43.4,29.1c-1.6-4.8-5.7-6-9.9-6.8c-2.8-0.6-4.2,0.9-3.8,3.7c0.3,2,1,3.9,1.6,5.9c0.7,2.3,2.4,3.4,4.4,4.3
	c1.3-1.4,2.4-2.7,3.7-3.9C40.5,31.1,42,30.2,43.4,29.1z M61.2,26c2-3.8,0-7.7-2.8-11.5c-1.6-2.3-3.7-2.2-5.3,0.2
	c-1.2,1.7-2,3.7-2.9,5.6c-0.9,2-0.5,4.1,0.3,5.8C54.2,26,57.6,26,61.2,26z M31.3,45.2c-0.1-0.1-0.4-0.2-0.7-0.3
	c-4.3-1.4-7.5,0.8-10.7,3c-2.3,1.5-2.3,3.7,0,5.3c1.8,1.2,3.9,2.1,5.9,3.1c2,0.9,3.9,0.3,5.5-0.3C31.3,52.3,31.3,48.9,31.3,45.2z
	 M35.4,65.1c-3.5,1.7-6.5,7.8-5.7,11.6c0.3,1.5,1.3,2.5,2.8,2.2c2.2-0.5,4.4-1.2,6.5-1.9c2.4-0.8,3.5-2.7,4.3-4.7
	C40.6,69.9,38.1,67.6,35.4,65.1z M72,31.7c0.3-2.6,0.6-5.1,1-7.6c-2.5,0.7-3.7,2.7-4.6,5C69.6,30,70.7,30.8,72,31.7z"/>
<path class="st0" d="M72.2,50.7c0,4.1,0.1,8.3-0.1,12.4c0,1-0.5,2.1-1.2,2.8c-6.5,6.2-14.2,7.9-22.6,4.9c-8.2-3-12.9-9.1-14-17.8
	c-1.6-12,7.6-23.9,21.2-24.2c6.2-0.1,11.6,2.1,15.9,6.8c0.5,0.5,0.7,1.5,0.7,2.2C72.3,42.2,72.2,46.5,72.2,50.7z"/>
<path class="st0" d="M50.6,75.1c3.6,0,7,0,10.7,0c0.8,2,1.3,4.1,0,6.4c-1.1,1.9-2.1,3.9-3.4,5.7c-0.9,1.2-2.2,1.4-3.6,0.5
	C51.1,85.5,49.1,78.6,50.6,75.1z"/>
<path class="st0" d="M43.4,29.1c-1.4,1.1-2.8,2.1-4.1,3.2c-1.3,1.2-2.4,2.5-3.7,3.9c-2-0.9-3.7-2.1-4.4-4.3
	c-0.6-1.9-1.2-3.9-1.6-5.9c-0.4-2.8,1-4.3,3.8-3.7C37.6,23.1,41.8,24.2,43.4,29.1z"/>
<path class="st0" d="M61.2,26c-3.6,0-7,0-10.7,0c-0.8-1.7-1.2-3.7-0.3-5.8c0.9-1.9,1.7-3.8,2.9-5.6c1.6-2.3,3.7-2.4,5.3-0.2
	C61.2,18.4,63.2,22.3,61.2,26z"/>
<path class="st0" d="M31.3,45.2c0,3.7,0,7,0,10.7c-1.6,0.6-3.5,1.3-5.5,0.3c-2-0.9-4.1-1.8-5.9-3.1c-2.3-1.6-2.3-3.7,0-5.3
	c3.2-2.2,6.5-4.4,10.7-3C30.9,45,31.2,45.2,31.3,45.2z"/>
<path class="st0" d="M35.4,65.1c2.7,2.4,5.2,4.7,7.9,7.2c-0.7,2-1.9,3.9-4.3,4.7c-2.2,0.7-4.3,1.5-6.5,1.9c-1.5,0.3-2.5-0.7-2.8-2.2
	C28.9,72.9,32,66.8,35.4,65.1z"/>
<path class="st0" d="M72,31.7c-1.3-0.9-2.4-1.7-3.6-2.6c0.8-2.4,2-4.3,4.6-5C72.6,26.6,72.3,29.1,72,31.7z"/>
<path class="st0" d="M111.1,88.6V16.9c0-9.1-7.3-16.4-16.4-16.4c-9,0-16.4,7.3-16.4,16.4v71.7c-5,4.5-8.2,11-8.2,18.3
	c0,13.6,11,24.6,24.6,24.6c13.6,0,24.6-11,24.6-24.6C119.3,99.7,116.2,93.1,111.1,88.6z M94.8,123.3c-9,0-16.4-7.3-16.4-16.4
	c0-6.1,3.3-11.3,8.2-14.2V16.9c0-4.5,3.7-8.2,8.2-8.2c4.5,0,8.2,3.7,8.2,8.2v75.8c4.9,2.8,8.2,8.1,8.2,14.2
	C111.1,116,103.8,123.3,94.8,123.3z"/>
<circle class="st0" cx="94.8" cy="106.9" r="12.3"/>
</svg>
