<?xml version="1.0" encoding="utf-8"?>
<!-- Generator: Adobe Illustrator 22.0.1, SVG Export Plug-In . SVG Version: 6.00 Build 0)  -->
<svg version="1.1" id="Layer_1" xmlns="http://www.w3.org/2000/svg" xmlns:xlink="http://www.w3.org/1999/xlink" x="0px" y="0px"
	 viewBox="0 0 179.5 132" style="enable-background:new 0 0 179.5 132;" xml:space="preserve">
<style type="text/css">
	.st0{fill:#FFFFFF;}
</style>
<path class="st0" d="M89.9,79.4c-1.1,0-2.1,0.3-2.8,1.1c-0.7,0.8-1.1,1.7-1.1,3s0.4,2.3,1.1,3c0.7,0.8,1.6,1.1,2.8,1.1
	c1.1,0,2.1-0.3,2.8-1.1c0.7-0.8,1.1-1.7,1.1-3s-0.4-2.3-1.1-3C92,79.8,91.1,79.4,89.9,79.4z"/>
<path class="st0" d="M138.2,80.4c-4.5-19.7-15.5-36.4-26.9-52.9C104.9,18.3,90.1,0,89.7,0c-0.3,0-9.6,11.8-13.8,17.3
	C65.6,30.8,56,44.7,48.7,59.9c-3.3,6.9-7,19.5-7.3,21.4c-0.4,1.9-0.6,8.6,0,11.9c0.6,3.3,4,13.7,8.6,19.6
	c7.8,10.2,18.2,16.6,31.4,18.8c1.6,0.6,14.5,0.3,15.7,0.2c1.2-0.2,15.5-3.7,22-8.5c9.3-6.9,15.6-15.7,18.4-26.5
	C137.7,95.8,139.1,87.7,138.2,80.4z M70.5,104.1c1,3.8,2,7.6,3.2,11.8c-6.2-3-10.8-7.1-13.9-12.5c-6.3-10.7-7.1-21.8-1.9-33.1
	C63.1,59,70.2,48.7,76.6,38c2.5-4.1,4.9-8.2,7.4-12.2C82,34.5,79,42.9,76.3,51.4c-2.8,9.1-5.4,18.3-7.1,27.7
	C67.7,87.5,68.4,95.8,70.5,104.1z M99.1,88.3c-0.8,1.3-1.9,2.4-3.3,3.1c-1.3,0.8-2.9,1.1-4.6,1.1c-2.1,0-3.9-0.6-5.1-1.8v7.8h-6.4
	V74.9h6.2v1.7c1.2-1.3,3-2,5.4-2c1.7,0,3.2,0.3,4.6,1c1.3,0.8,2.4,1.8,3.3,3.1c0.8,1.3,1.2,2.9,1.2,4.7S99.9,86.9,99.1,88.3z
	 M126.3,92.2h-6.7v-8.7h-9.2v8.7h-6.7V69.8h6.7v8.4h9.2v-8.4h6.7V92.2z"/>
</svg>
