<?xml version="1.0" encoding="utf-8"?>
<!-- Generator: Adobe Illustrator 23.0.3, SVG Export Plug-In . SVG Version: 6.00 Build 0)  -->
<svg version="1.1" id="Layer_1" xmlns="http://www.w3.org/2000/svg" xmlns:xlink="http://www.w3.org/1999/xlink" x="0px" y="0px"
	 viewBox="0 0 199.4 131.8" style="enable-background:new 0 0 199.4 131.8;" xml:space="preserve">
<style type="text/css">
	.st0{fill:#FFFFFF;}
	.st1{display:none;fill:#FFFFFF;}
</style>
<g>
	<g>
		<path class="st0" d="M23.9,130.8h-3.2c-0.9,0-1.6-0.6-1.6-1.5c0-0.1,0-0.2,0-0.4c0-8.5,0.1-17.2-0.1-25.7c0-1.8,0.7-2.5,3.4-2.5
			c2.8,0,3.3,0.9,3.2,2.6c-0.1,8.5,0,17-0.1,25.5c0,0.2,0,0.4,0,0.6C25.5,130.1,24.8,130.8,23.9,130.8z"/>
		<path class="st0" d="M29.5,120.5h39.6c1.1,0,1.4,1.4,0.4,1.9L50.4,130c-0.3,0.1-0.6,0.1-0.9,0L29,122.3
			C28,121.9,28.4,120.5,29.5,120.5z"/>
		<path class="st0" d="M67.3,63.7H31.2c-1.5,0-2.7-1.2-2.7-2.6v-8.8c0-1.5,1.2-2.6,2.7-2.6h36.1c1.5,0,2.7,1.2,2.7,2.6v8.8
			C70,62.5,68.8,63.7,67.3,63.7z"/>
		<path class="st0" d="M67.3,82.1H31.2c-1.5,0-2.7-1.2-2.7-2.6v-9.5c0-1.5,1.2-2.6,2.7-2.6h36.1c1.5,0,2.7,1.2,2.7,2.6v9.5
			C70,80.9,68.8,82.1,67.3,82.1z"/>
		<path class="st0" d="M67.3,99.1H31.2c-1.5,0-2.7-1.2-2.7-2.6v-8.8c0-1.5,1.2-2.6,2.7-2.6h36.1c1.5,0,2.7,1.2,2.7,2.6v8.8
			C70,97.9,68.8,99.1,67.3,99.1z"/>
		<path class="st0" d="M67.3,116.8H31.2c-1.5,0-2.7-1.2-2.7-2.6v-8.9c0-1.5,1.2-2.6,2.7-2.6h36.1c1.5,0,2.7,1.2,2.7,2.6v8.8
			C70,115.6,68.8,116.8,67.3,116.8z"/>
		<path class="st0" d="M68.8,46.3H29.1c-1.1,0-1.4-1.4-0.4-1.9l19.2-7.8c0.3-0.1,0.6-0.1,0.9,0l20.5,7.7
			C70.2,44.9,69.9,46.3,68.8,46.3z"/>
		<path class="st0" d="M77.1,130.9H74c-0.9,0-1.6-0.6-1.6-1.5c0-0.1,0-0.2,0-0.4c0-8.5,0.1-17.2-0.1-25.7c0-1.8,0.7-2.5,3.4-2.5
			c2.8,0,3.3,0.9,3.2,2.6c-0.1,8.5,0,17-0.1,25.5c0,0.2,0,0.4,0,0.6C78.7,130.2,78,130.9,77.1,130.9z"/>
	</g>
	<g>
		<path class="st1" d="M74.9,113h-3.2c-0.9,0-1.6-0.6-1.6-1.5c0-0.1,0-0.2,0-0.4c0-8.5,0.1-17.2-0.1-25.7c0-1.8,0.7-2.5,3.4-2.5
			c2.8,0,3.3,0.9,3.2,2.6c-0.1,8.5,0,17-0.1,25.5c0,0.2,0,0.4,0,0.6C76.5,112.3,75.8,113,74.9,113z"/>
		<path class="st0" d="M80.5,102.7h39.6c1.1,0,1.4,1.4,0.4,1.9l-19.2,7.7c-0.3,0.1-0.6,0.1-0.9,0L80,104.5
			C79,104.1,79.4,102.7,80.5,102.7z"/>
		<path class="st0" d="M118.3,45.9H82.2c-1.5,0-2.7-1.2-2.7-2.6v-8.8c0-1.5,1.2-2.6,2.7-2.6h36.1c1.5,0,2.7,1.2,2.7,2.6v8.8
			C121,44.7,119.8,45.9,118.3,45.9z"/>
		<path class="st0" d="M118.3,64.3H82.2c-1.5,0-2.7-1.2-2.7-2.6v-9.5c0-1.5,1.2-2.6,2.7-2.6h36.1c1.5,0,2.7,1.2,2.7,2.6v9.5
			C121,63.1,119.8,64.3,118.3,64.3z"/>
		<path class="st0" d="M118.3,81.3H82.2c-1.5,0-2.7-1.2-2.7-2.6v-8.8c0-1.5,1.2-2.6,2.7-2.6h36.1c1.5,0,2.7,1.2,2.7,2.6v8.8
			C121,80.1,119.8,81.3,118.3,81.3z"/>
		<path class="st0" d="M118.3,99H82.2c-1.5,0-2.7-1.2-2.7-2.6v-8.9c0-1.5,1.2-2.6,2.7-2.6h36.1c1.5,0,2.7,1.2,2.7,2.6v8.8
			C121,97.8,119.8,99,118.3,99z"/>
		<path class="st0" d="M119.8,28.5H80.1c-1.1,0-1.4-1.4-0.4-1.9l19.2-7.8c0.3-0.1,0.6-0.1,0.9,0l20.5,7.7
			C121.2,27.1,120.9,28.5,119.8,28.5z"/>
		<path class="st0" d="M128.1,113.1H125c-0.9,0-1.6-0.6-1.6-1.5c0-0.1,0-0.2,0-0.4c0-8.5,0.1-17.2-0.1-25.7c0-1.8,0.7-2.5,3.4-2.5
			c2.8,0,3.3,0.9,3.2,2.6c-0.1,8.5,0,17-0.1,25.5c0,0.2,0,0.4,0,0.6C129.7,112.4,129,113.1,128.1,113.1z"/>
	</g>
	<g>
		<path class="st1" d="M125.9,95.2h-3.2c-0.9,0-1.6-0.6-1.6-1.5c0-0.1,0-0.2,0-0.4c0-8.5,0.1-17.2-0.1-25.7c0-1.8,0.7-2.5,3.4-2.5
			c2.8,0,3.3,0.9,3.2,2.6c-0.1,8.5,0,17-0.1,25.5c0,0.2,0,0.4,0,0.6C127.5,94.5,126.8,95.2,125.9,95.2z"/>
		<path class="st0" d="M131.5,84.9h39.6c1.1,0,1.4,1.4,0.4,1.9l-19.2,7.7c-0.3,0.1-0.6,0.1-0.9,0L131,86.7
			C130,86.3,130.4,84.9,131.5,84.9z"/>
		<path class="st0" d="M169.3,28.2h-36.1c-1.5,0-2.7-1.2-2.7-2.6v-8.8c0-1.5,1.2-2.6,2.7-2.6h36.1c1.5,0,2.7,1.2,2.7,2.6v8.8
			C172,26.9,170.8,28.2,169.3,28.2z"/>
		<path class="st0" d="M169.3,46.5h-36.1c-1.5,0-2.7-1.2-2.7-2.6v-9.5c0-1.5,1.2-2.6,2.7-2.6h36.1c1.5,0,2.7,1.2,2.7,2.6v9.5
			C172,45.3,170.8,46.5,169.3,46.5z"/>
		<path class="st0" d="M169.3,63.5h-36.1c-1.5,0-2.7-1.2-2.7-2.6v-8.8c0-1.5,1.2-2.6,2.7-2.6h36.1c1.5,0,2.7,1.2,2.7,2.6v8.8
			C172,62.3,170.8,63.5,169.3,63.5z"/>
		<path class="st0" d="M169.3,81.2h-36.1c-1.5,0-2.7-1.2-2.7-2.6v-8.9c0-1.5,1.2-2.6,2.7-2.6h36.1c1.5,0,2.7,1.2,2.7,2.6v8.8
			C172,80,170.8,81.2,169.3,81.2z"/>
		<path class="st0" d="M170.8,10.7h-39.6c-1.1,0-1.4-1.4-0.4-1.9l19.2-7.8c0.3-0.1,0.6-0.1,0.9,0l20.5,7.7
			C172.2,9.3,171.9,10.7,170.8,10.7z"/>
		<path class="st0" d="M179.1,95.3H176c-0.9,0-1.6-0.6-1.6-1.5c0-0.1,0-0.2,0-0.4c0-8.5,0.1-17.2-0.1-25.7c0-1.8,0.7-2.5,3.4-2.5
			c2.8,0,3.3,0.9,3.2,2.6c-0.1,8.5,0,17-0.1,25.5c0,0.2,0,0.4,0,0.6C180.7,94.6,180,95.3,179.1,95.3z"/>
	</g>
</g>
</svg>
