<?xml version="1.0" encoding="utf-8"?>
<!-- Generator: Adobe Illustrator 22.0.1, SVG Export Plug-In . SVG Version: 6.00 Build 0)  -->
<svg version="1.1" id="Layer_1" xmlns="http://www.w3.org/2000/svg" xmlns:xlink="http://www.w3.org/1999/xlink" x="0px" y="0px"
	 viewBox="0 0 199.2 132" style="enable-background:new 0 0 199.2 132;" xml:space="preserve">
<style type="text/css">
	.st0{fill:#FFFFFF;}
</style>
<g>
	<path class="st0" d="M65.2,132.1h-4.4c-1.2,0-2.2-0.9-2.2-2.1c0-0.2,0-0.3,0-0.5c0-12,0.1-24.1-0.1-36.1c0-2.5,0.9-3.5,4.6-3.5
		c3.9,0,4.5,1.2,4.4,3.6c-0.1,11.9,0,23.9-0.1,35.8c0,0.3,0,0.5,0,0.8C67.4,131.1,66.4,132.1,65.2,132.1z"/>
	<path class="st0" d="M72.9,117.6l54.4,0c1.5,0,1.9,2,0.6,2.6L101.6,131c-0.4,0.2-0.8,0.2-1.2,0l-28.2-10.8
		C70.9,119.6,71.4,117.6,72.9,117.6z"/>
	<path class="st0" d="M124.8,37.9H75.3c-2.1,0-3.7-1.7-3.7-3.7V21.8c0-2.1,1.7-3.7,3.7-3.7h49.5c2.1,0,3.7,1.7,3.7,3.7v12.4
		C128.5,36.2,126.8,37.9,124.8,37.9z"/>
	<path class="st0" d="M124.8,63.7H75.3c-2.1,0-3.7-1.7-3.7-3.7V46.6c0-2.1,1.7-3.7,3.7-3.7h49.5c2.1,0,3.7,1.7,3.7,3.7v13.3
		C128.5,62,126.8,63.7,124.8,63.7z"/>
	<path class="st0" d="M124.8,87.6H75.3c-2.1,0-3.7-1.7-3.7-3.7V71.5c0-2.1,1.7-3.7,3.7-3.7h49.5c2.1,0,3.7,1.7,3.7,3.7v12.4
		C128.5,85.9,126.8,87.6,124.8,87.6z"/>
	<path class="st0" d="M124.8,112.5H75.3c-2.1,0-3.7-1.7-3.7-3.7V96.3c0-2.1,1.7-3.7,3.7-3.7h49.5c2.1,0,3.7,1.7,3.7,3.7v12.4
		C128.5,110.8,126.8,112.5,124.8,112.5z"/>
	<path class="st0" d="M126.8,13.4l-54.4,0c-1.5,0-1.9-2-0.6-2.6L98.1-0.1c0.4-0.2,0.8-0.2,1.2,0l28.2,10.8
		C128.8,11.4,128.3,13.4,126.8,13.4z"/>
	<path class="st0" d="M138.3,132.2H134c-1.2,0-2.2-0.9-2.2-2.1c0-0.2,0-0.3,0-0.5c0-12,0.1-24.1-0.1-36.1c0-2.5,0.9-3.5,4.6-3.5
		c3.9,0,4.5,1.2,4.4,3.6c-0.1,11.9,0,23.9-0.1,35.8c0,0.3,0,0.5,0,0.8C140.5,131.3,139.5,132.2,138.3,132.2z"/>
</g>
</svg>
