<?xml version="1.0" encoding="utf-8"?>
<!-- Generator: Adobe Illustrator 22.0.1, SVG Export Plug-In . SVG Version: 6.00 Build 0)  -->
<svg version="1.1" id="Layer_1" xmlns="http://www.w3.org/2000/svg" xmlns:xlink="http://www.w3.org/1999/xlink" x="0px" y="0px"
	 viewBox="0 0 179.5 132" style="enable-background:new 0 0 179.5 132;" xml:space="preserve">
<style type="text/css">
	.st0{fill:#FFFFFF;}
</style>
<g>
	<path class="st0" d="M103.4,68.5c-4.9,0-9.9-0.1-14.8,0c-5.6,0.1-8.5,2.2-10,7.5c-0.6,1.9-1.5,2.5-3.3,2.5c-8.9,0-17.8,0-26.8,0
		c-1.5,0-3.1-0.1-3.1-2.2c-0.1-7.8-0.8-15.7,3.1-23c5.9-11.2,15.2-17.2,27.8-17.8c2.6-0.1,4.2-0.6,3.8-3.6c-0.2-1.6,0.3-2.7,2.3-3
		c4.1-0.5,5.8-2.9,4.1-6.6c-1.2-2.6-3.1-5.2-6.7-5.2c-4.3,0-8.7,0-13,0c-4.1-0.1-6.6-2.3-6.6-5.7c0-3.4,2.5-5.5,6.6-5.6
		c2.5,0,5.1,0,7.6,0c4,0,7.7,0.2,11.2-3.3c3.9-3.9,9.9-3,14,1.1c1.6,1.6,3.2,2.2,5.4,2.2c4.1-0.1,8.2-0.1,12.3,0
		c3.8,0.1,5.9,2.1,6,5.4c0.1,3.4-2.1,5.8-5.9,5.9c-4.1,0.1-8.2,0-12.3,0.1c-5.4,0-8.9,3.8-8.6,9.1c0.1,2,0.9,2.9,2.9,2.7
		c3-0.3,4.7,0.6,4.3,4c-0.2,2.1,1.1,2.6,3,2.6c4,0,8,0.1,11.9,0c2.7-0.1,4,0.8,3.9,3.7c-0.1,8.6-0.1,17.1,0,25.7
		c0,2.9-1.1,3.8-3.9,3.7C113.6,68.4,108.5,68.5,103.4,68.5C103.4,68.5,103.4,68.5,103.4,68.5z"/>
	<path class="st0" d="M126.5,51.9c0-6.1,0.1-12.3,0-18.4c0-2.6,0.9-3.7,3.6-3.7c11.7,0.1,9.7-1.2,9.8,9.3
		c0.1,10.2-0.1,20.5,0.1,30.7c0,3.2-0.9,4.5-4.3,4.4c-10.6-0.3-9,1.2-9.1-9C126.4,60.9,126.4,56.4,126.5,51.9z"/>
	<path class="st0" d="M61.5,96c-6,0-12.1-0.1-18.1,0c-2.8,0.1-3.9-1-3.8-3.8c0.2-11.3-1.3-9.5,9.2-9.6c10.4-0.1,20.7,0.1,31.1-0.1
		c3.1,0,4.3,1,4.2,4.2c-0.2,10.9,1.2,9.1-9.2,9.2C70.5,96,66,96,61.5,96z"/>
	<path class="st0" d="M71.2,122c-0.4,4.4-2.1,7.3-5.6,8.9c-3.6,1.7-7.1,1.2-10.1-1.3c-2.8-2.4-4.2-5.6-3.1-9.4
		c1.7-5.6,4.7-10.5,7.7-15.4c0.6-0.9,1.4-2.1,2.4-0.6C66.3,110,69.9,115.8,71.2,122z"/>
</g>
</svg>
