<svg width="32" height="32" viewBox="0 0 32 32" fill="none" xmlns="http://www.w3.org/2000/svg">
<rect width="32" height="32" rx="16" fill="white" fill-opacity="0.01"/>
<path fill-rule="evenodd" clip-rule="evenodd" d="M11.0503 7.05025C12.3631 5.7375 14.1436 5 16.0001 5C17.8566 5 19.6371 5.7375 20.9498 7.05025C22.2626 8.36301 23.0001 10.1435 23.0001 12C23.0001 15.3527 23.7171 17.4346 24.378 18.6461C24.7098 19.2544 25.0329 19.6535 25.2573 19.8904C25.3698 20.0091 25.4581 20.0878 25.5114 20.1322C25.538 20.1544 25.5558 20.168 25.5635 20.1737L25.5664 20.1758C25.9249 20.4221 26.0835 20.8725 25.9572 21.2898C25.8295 21.7115 25.4407 22 25.0001 22H7.00008C6.55941 22 6.17068 21.7115 6.04299 21.2898C5.91664 20.8725 6.07528 20.4221 6.43377 20.1758L6.43663 20.1737C6.44432 20.168 6.46218 20.1544 6.4888 20.1322C6.54202 20.0878 6.6304 20.0091 6.74288 19.8904C6.9673 19.6535 7.29039 19.2544 7.62218 18.6461C8.28301 17.4346 9.00008 15.3527 9.00008 12C9.00008 10.1435 9.73758 8.36301 11.0503 7.05025Z" fill="#505F79"/>
<path fill-rule="evenodd" clip-rule="evenodd" d="M14.4984 24.135C14.9761 23.8579 15.588 24.0205 15.8652 24.4983C15.9531 24.6498 16.0792 24.7756 16.2311 24.863C16.3829 24.9505 16.555 24.9965 16.7302 24.9965C16.9054 24.9965 17.0775 24.9505 17.2293 24.863C17.3811 24.7756 17.5073 24.6498 17.5952 24.4983C17.8723 24.0205 18.4842 23.8579 18.9619 24.135C19.4397 24.4122 19.6023 25.0241 19.3252 25.5018C19.0614 25.9564 18.6829 26.3338 18.2275 26.5961C17.7721 26.8584 17.2557 26.9965 16.7302 26.9965C16.2046 26.9965 15.6883 26.8584 15.2328 26.5961C14.7774 26.3338 14.3989 25.9564 14.1352 25.5018C13.858 25.0241 14.0207 24.4122 14.4984 24.135Z" fill="#505F79"/>
</svg>
