<svg width="40" height="40" viewBox="0 0 40 40" fill="none" xmlns="http://www.w3.org/2000/svg">
<path d="M8.83982 15.3995H23.9566C24.1793 15.3995 24.3929 15.2731 24.5504 15.0481C24.7079 14.8231 24.7964 14.5179 24.7964 14.1997C24.7964 13.8815 24.7079 13.5764 24.5504 13.3514C24.3929 13.1264 24.1793 13 23.9566 13H8.83982C8.61708 13 8.40347 13.1264 8.24598 13.3514C8.08848 13.5764 8 13.8815 8 14.1997C8 14.5179 8.08848 14.8231 8.24598 15.0481C8.40347 15.2731 8.61708 15.3995 8.83982 15.3995ZM23.9566 24.9974H8.83982C8.61708 24.9974 8.40347 25.1238 8.24598 25.3488C8.08848 25.5738 8 25.879 8 26.1971C8 26.5153 8.08848 26.8205 8.24598 27.0455C8.40347 27.2705 8.61708 27.3969 8.83982 27.3969H23.9566C24.1793 27.3969 24.3929 27.2705 24.5504 27.0455C24.7079 26.8205 24.7964 26.5153 24.7964 26.1971C24.7964 25.879 24.7079 25.5738 24.5504 25.3488C24.3929 25.1238 24.1793 24.9974 23.9566 24.9974ZM23.9566 18.9987H8.83982C8.61708 18.9987 8.40347 19.1251 8.24598 19.3501C8.08848 19.5751 8 19.8803 8 20.1984C8 20.5166 8.08848 20.8218 8.24598 21.0468C8.40347 21.2718 8.61708 21.3982 8.83982 21.3982H23.9566C24.1793 21.3982 24.3929 21.2718 24.5504 21.0468C24.7079 20.8218 24.7964 20.5166 24.7964 20.1984C24.7964 19.8803 24.7079 19.5751 24.5504 19.3501C24.3929 19.1251 24.1793 18.9987 23.9566 18.9987Z" fill="#7A869A"/>
<path d="M27.5486 23.4547C27.3227 23.2287 27.1958 22.9223 27.1958 22.6028L27.1958 17.8039C27.1958 17.6457 27.227 17.489 27.2875 17.3429C27.348 17.1967 27.4368 17.0639 27.5486 16.9521C27.6605 16.8402 27.7933 16.7515 27.9394 16.6909C28.0856 16.6304 28.2423 16.5992 28.4004 16.5992C28.5586 16.5992 28.7153 16.6304 28.8614 16.6909C29.0076 16.7515 29.1404 16.8402 29.2523 16.9521L31.6517 19.3515C31.761 19.4656 31.8466 19.6002 31.9037 19.7475C31.9672 19.8911 32 20.0464 32 20.2034C32 20.3604 31.9672 20.5157 31.9037 20.6593C31.8466 20.8065 31.761 20.9411 31.6517 21.0552L29.2523 23.4547C29.0264 23.6806 28.7199 23.8075 28.4004 23.8075C28.081 23.8075 27.7745 23.6806 27.5486 23.4547Z" fill="#7A869A"/>
</svg>
